<?xml version="1.0" encoding="UTF-8"?>
<svg xmlns="http://www.w3.org/2000/svg" xmlns:xlink="http://www.w3.org/1999/xlink" width="2422.8730392871016" height="1058.201923076923" viewBox="0 0 2422.8730392871016 1058.201923076923">
<rect x="0" y="0" width="2422.8730392871016" height="1058.201923076923" fill="white"/>
<g transform="translate(955.8393429487179 484.9553571428571)">
<path fill="none" stroke="#7abcd9" stroke-width="16" stroke-linecap="round" d="M 129.57142857142856 -89.9017857142857 C 64.78571428571428 -89.9017857142857, 25.91428571428571 107.99999999999997, 0 107.99999999999997"/>
<rect x="128.57142857142856" y="-97.9017857142857" width="176" height="16" fill="#7abcd9"/>
<path fill="none" stroke="#7abcd9" stroke-width="10" stroke-linecap="round" d="M 335.19642857142856 -321.96428571428567 C 319.88392857142856 -321.96428571428567, 310.69642857142856 -89.90178571428567, 304.57142857142856 -89.90178571428567"/>
<rect x="334.19642857142856" y="-326.96428571428567" width="174" height="10" fill="#7abcd9"/>
<path fill="none" stroke="#7abcd9" stroke-width="6" stroke-linecap="round" d="M 570.1964285714284 -333.51116071428567 C 539.1964285714284 -333.51116071428567, 520.5964285714284 -321.96428571428567, 508.19642857142844 -321.96428571428567"/>
<rect x="569.1964285714284" y="-336.51116071428567" width="142" height="6" fill="#7abcd9"/>
<path fill="none" stroke="#7abcd9" stroke-width="10" stroke-linecap="round" d="M 371.24553571428567 -218.52678571428567 C 337.9084821428571 -218.52678571428567, 317.90625 -89.90178571428567, 304.57142857142856 -89.90178571428567"/>
<rect x="370.24553571428567" y="-223.52678571428567" width="213" height="10" fill="#7abcd9"/>
<path fill="none" stroke="#7abcd9" stroke-width="6" stroke-linecap="round" d="M 619.1361607142857 -246.33668154761904 C 601.1908482142857 -246.33668154761904, 590.4236607142857 -218.52678571428572, 583.2455357142857 -218.52678571428572"/>
<rect x="618.1361607142857" y="-249.33668154761904" width="114" height="6" fill="#7abcd9"/>
<path fill="none" stroke="#f7941d" stroke-width="16" stroke-linecap="round" d="M 220.44602272727272 198.6534090909091 C 110.22301136363636 198.6534090909091, 44.08920454545454 108, 0 108"/>
<rect x="219.44602272727272" y="190.6534090909091" width="298" height="16" fill="#f7941d"/>
<path fill="none" stroke="#f7941d" stroke-width="10" stroke-linecap="round" d="M 453.42438811188805 -142.55572552447543 C 453.42438811188805 23.04884178321683, 512.4460227272727 129.41158216783217, 512.4460227272727 198.6534090909091"/>
<rect x="448.42438811188805" y="-147.55572552447543" width="263" height="10" fill="#f7941d"/>
<path fill="none" stroke="#f7941d" stroke-width="6" stroke-linecap="round" d="M 786.4361068618881 -178.84869427447543 C 748.9302474868881 -178.84869427447543, 726.4267318618881 -142.55572552447543, 711.4243881118881 -142.55572552447543"/>
<rect x="785.4361068618881" y="-181.84869427447543" width="277" height="6" fill="#f7941d"/>
<path fill="none" stroke="#f7941d" stroke-width="4" stroke-linecap="round" d="M 1086.6791624174439 -188.60911094114212 C 1074.557634639666 -188.60911094114212, 1067.2847179729993 -178.84869427447546, 1062.4361068618882 -178.84869427447546"/>
<rect x="1085.6791624174436" y="-190.60911094114212" width="152" height="4" fill="#f7941d"/>
<path fill="none" stroke="#f7941d" stroke-width="6" stroke-linecap="round" d="M 784.2779037368881 -99.39556927447543 C 747.8511459243881 -99.39556927447543, 725.9950912368881 -142.55572552447543, 711.4243881118881 -142.55572552447543"/>
<rect x="783.2779037368881" y="-102.39556927447543" width="256" height="6" fill="#f7941d"/>
<path fill="none" stroke="#f7941d" stroke-width="4" stroke-linecap="round" d="M 1057.676341236888 -103.40728802447543 C 1048.477122486888 -103.40728802447543, 1042.957591236888 -99.39556927447543, 1039.277903736888 -99.39556927447543"/>
<rect x="1056.676341236888" y="-105.40728802447543" width="276" height="4" fill="#f7941d"/>
<path fill="none" stroke="#f7941d" stroke-width="10" stroke-linecap="round" d="M 527.4460227272727 9.318181818181841 C 522.4460227272727 9.318181818181841, 519.4460227272727 198.6534090909091, 517.4460227272727 198.6534090909091"/>
<rect x="518.1818181818181" y="4.318181818181841" width="250" height="10" fill="#f7941d"/>
<path fill="none" stroke="#f7941d" stroke-width="6" stroke-linecap="round" d="M 816.4474431818182 -0.41228693181815856 C 792.3146306818182 -0.41228693181815856, 777.8349431818183 9.318181818181841, 768.1818181818182 9.318181818181841"/>
<rect x="815.4474431818182" y="-3.4122869318181586" width="251" height="6" fill="#f7941d"/>
<path fill="none" stroke="#f7941d" stroke-width="4" stroke-linecap="round" d="M 1105.678212412587 3.356943837412615 C 1086.0628277972025 3.356943837412615, 1074.2935970279718 -0.41228693181815856, 1066.447443181818 -0.41228693181815856"/>
<rect x="1104.6782124125873" y="1.356943837412615" width="155" height="4" fill="#f7941d"/>
<path fill="none" stroke="#f7941d" stroke-width="10" stroke-linecap="round" d="M 545.5415088383838 205.63604797979798 C 531.4937657828283 205.63604797979798, 523.0651199494949 198.6534090909091, 517.4460227272727 198.6534090909091"/>
<rect x="544.5415088383838" y="200.63604797979798" width="244" height="10" fill="#f7941d"/>
<path fill="none" stroke="#f7941d" stroke-width="6" stroke-linecap="round" d="M 910.8366477272727 72.10132575757576 C 849.6890782828283 72.10132575757576, 813.0005366161616 205.63604797979798, 788.5415088383838 205.63604797979798"/>
<rect x="909.8366477272727" y="69.10132575757576" width="125" height="6" fill="#f7941d"/>
<path fill="none" stroke="#f7941d" stroke-width="6" stroke-linecap="round" d="M 877.4946338383838 150.14386047979798 C 833.0180713383838 150.14386047979798, 806.3321338383838 205.63604797979798, 788.5415088383838 205.63604797979798"/>
<rect x="876.4946338383838" y="147.14386047979798" width="263" height="6" fill="#f7941d"/>
<path fill="none" stroke="#f7941d" stroke-width="4" stroke-linecap="round" d="M 1170.0336963383838 106.93292297979798 C 1154.7641650883838 106.93292297979798, 1145.6024463383837 150.14386047979798, 1139.4946338383838 150.14386047979798"/>
<rect x="1169.0336963383838" y="104.93292297979798" width="273" height="4" fill="#f7941d"/>
<path fill="none" stroke="#f7941d" stroke-width="4" stroke-linecap="round" d="M 1172.0063525883838 168.18292297979798 C 1155.7504932133838 168.18292297979798, 1145.9969775883837 150.14386047979798, 1139.4946338383838 150.14386047979798"/>
<rect x="1171.0063525883838" y="166.18292297979798" width="250" height="4" fill="#f7941d"/>
<path fill="none" stroke="#f7941d" stroke-width="6" stroke-linecap="round" d="M 859.0961963383838 260.190735479798 C 823.8188525883838 260.190735479798, 802.6524463383838 205.63604797979798, 788.5415088383838 205.63604797979798"/>
<rect x="858.0961963383838" y="257.190735479798" width="149" height="6" fill="#f7941d"/>
<path fill="none" stroke="#f7941d" stroke-width="4" stroke-linecap="round" d="M 1115.6977588383838 250.66339172979798 C 1061.3969775883838 250.66339172979798, 1028.816508838384 260.190735479798, 1007.0961963383838 260.190735479798"/>
<rect x="1114.6977588383838" y="248.66339172979798" width="202" height="4" fill="#f7941d"/>
<path fill="none" stroke="#f7941d" stroke-width="10" stroke-linecap="round" d="M 318.1960227272727 469.20251623376623 C 318.1960227272727 325.9279626623377, 512.4460227272727 246.36323051948054, 512.4460227272727 198.65340909090912"/>
<rect x="313.1960227272727" y="464.20251623376623" width="161" height="10" fill="#f7941d"/>
<path fill="none" stroke="#f7941d" stroke-width="6" stroke-linecap="round" d="M 639.1178977272726 434.8096590909091 C 556.6569602272726 434.8096590909091, 507.1803977272727 469.20251623376623, 474.1960227272727 469.20251623376623"/>
<rect x="638.1178977272726" y="431.8096590909091" width="313" height="6" fill="#f7941d"/>
<path fill="none" stroke="#f7941d" stroke-width="6" stroke-linecap="round" d="M 574.1960227272726 355.34537337662334 C 524.1960227272726 355.34537337662334, 494.1960227272727 469.2025162337662, 474.1960227272727 469.2025162337662"/>
<rect x="573.1960227272726" y="352.34537337662334" width="163" height="6" fill="#f7941d"/>
<path fill="none" stroke="#f7941d" stroke-width="4" stroke-linecap="round" d="M 773.481737012987 342.6310876623377 C 754.8388798701299 342.6310876623377, 743.6531655844155 355.3453733766234, 736.1960227272727 355.3453733766234"/>
<rect x="772.481737012987" y="340.6310876623377" width="246" height="4" fill="#f7941d"/>
<path fill="none" stroke="#E08A96" stroke-width="16" stroke-linecap="round" d="M -25.92410714285711 -79.47767857142856 C -12.462053571428555 -79.47767857142856, -4.384821428571421 108, 1 108"/>
<rect x="-192.9241071428571" y="-87.47767857142856" width="167" height="16" fill="#E08A96"/>
<path fill="none" stroke="#E08A96" stroke-width="10" stroke-linecap="round" d="M -33.28124999999997 -282.4553571428571 C -33.28124999999997 -185.96651785714283, -187.9241071428571 -121.07321428571427, -187.9241071428571 -79.47767857142856"/>
<rect x="-223.28124999999997" y="-287.4553571428571" width="195" height="10" fill="#E08A96"/>
<path fill="none" stroke="#E08A96" stroke-width="6" stroke-linecap="round" d="M -185.7812499999999 -430.39546130952374 C -185.7812499999999 -359.4254092261904, -220.28124999999994 -312.64337797619044, -220.28124999999994 -282.4553571428571"/>
<rect x="-505.7812499999999" y="-433.39546130952374" width="323" height="6" fill="#E08A96"/>
<path fill="none" stroke="#E08A96" stroke-width="6" stroke-linecap="round" d="M -298.84114583333326 -380.12202380952374 C -260.56119791666663 -380.12202380952374, -237.59322916666662 -282.4553571428571, -222.28124999999994 -282.4553571428571"/>
<rect x="-538.8411458333333" y="-383.12202380952374" width="240" height="6" fill="#E08A96"/>
<path fill="none" stroke="#E08A96" stroke-width="4" stroke-linecap="round" d="M -598.5078125 -432.9553571428571 C -568.1744791666666 -432.9553571428571, -549.9744791666667 -380.1220238095238, -537.8411458333334 -380.1220238095238"/>
<rect x="-670.5078125" y="-434.9553571428571" width="72" height="4" fill="#E08A96"/>
<path fill="none" stroke="#E08A96" stroke-width="4" stroke-linecap="round" d="M -604.8411458333333 -385.4553571428571 C -571.3411458333333 -385.4553571428571, -551.2411458333332 -380.1220238095238, -537.8411458333333 -380.1220238095238"/>
<rect x="-713.8411458333333" y="-387.4553571428571" width="109" height="4" fill="#E08A96"/>
<path fill="none" stroke="#E08A96" stroke-width="4" stroke-linecap="round" d="M -630.1744791666665 -344.62202380952374 C -584.0078124999999 -344.62202380952374, -556.3078124999998 -380.12202380952374, -537.8411458333333 -380.12202380952374"/>
<rect x="-702.1744791666665" y="-346.62202380952374" width="72" height="4" fill="#E08A96"/>
<path fill="none" stroke="#E08A96" stroke-width="6" stroke-linecap="round" d="M -293.27604166666663 -250.8381696428571 C -257.7786458333333 -250.8381696428571, -236.48020833333334 -282.4553571428571, -222.28125 -282.4553571428571"/>
<rect x="-416.27604166666663" y="-253.8381696428571" width="123" height="6" fill="#E08A96"/>
<path fill="none" stroke="#E08A96" stroke-width="4" stroke-linecap="round" d="M -479.6249999999999 -299.27046130952374 C -447.45052083333326 -299.27046130952374, -428.14583333333326 -250.83816964285708, -415.2760416666666 -250.83816964285708"/>
<rect x="-615.6249999999999" y="-301.27046130952374" width="136" height="4" fill="#E08A96"/>
<path fill="none" stroke="#E08A96" stroke-width="2" stroke-linecap="round" d="M -657.1971153846152 -299.63344207875457 C -635.9110576923076 -299.63344207875457, -623.139423076923 -299.2704613095238, -614.625 -299.2704613095238"/>
<rect x="-883.1971153846152" y="-300.63344207875457" width="226" height="2" fill="#E08A96"/>
<path fill="none" stroke="#E08A96" stroke-width="4" stroke-linecap="round" d="M -484.72395833333326 -228.39806547619045 C -449.99999999999994 -228.39806547619045, -429.165625 -250.8381696428571, -415.27604166666663 -250.8381696428571"/>
<rect x="-713.7239583333333" y="-230.39806547619045" width="229" height="4" fill="#E08A96"/>
<path fill="none" stroke="#E08A96" stroke-width="2" stroke-linecap="round" d="M -749.8393429487179 -231.1829212454212 C -731.2816506410256 -231.1829212454212, -720.1470352564103 -228.39806547619042, -712.7239583333333 -228.39806547619042"/>
<rect x="-930.8393429487179" y="-232.1829212454212" width="181" height="2" fill="#E08A96"/>
<path fill="none" stroke="#E08A96" stroke-width="10" stroke-linecap="round" d="M -264.0133928571428 -52.29910714285713 C -227.96874999999994 -52.29910714285713, -206.34196428571425 -79.47767857142856, -191.9241071428571 -79.47767857142856"/>
<rect x="-463.0133928571428" y="-57.29910714285714" width="199" height="10" fill="#E08A96"/>
<path fill="none" stroke="#E08A96" stroke-width="6" stroke-linecap="round" d="M -508.96391369047603 -144.5100446428571 C -485.4886532738094 -144.5100446428571, -471.40349702380945 -52.299107142857125, -462.0133928571428 -52.299107142857125"/>
<rect x="-828.963913690476" y="-147.5100446428571" width="320" height="6" fill="#E08A96"/>
<path fill="none" stroke="#E08A96" stroke-width="6" stroke-linecap="round" d="M -554.7633928571427 -69.8095238095238 C -508.38839285714266 -69.8095238095238, -480.56339285714273 -52.29910714285713, -462.0133928571427 -52.29910714285713"/>
<rect x="-826.7633928571427" y="-72.8095238095238" width="272" height="6" fill="#E08A96"/>
<path fill="none" stroke="#E08A96" stroke-width="6" stroke-linecap="round" d="M -500.4769345238094 -1.3329613095238102 C -481.2451636904761 -1.3329613095238102, -469.7061011904761 -52.29910714285713, -462.0133928571428 -52.29910714285713"/>
<rect x="-831.4769345238094" y="-4.33296130952381" width="331" height="6" fill="#E08A96"/>
<path fill="none" stroke="#95bb64" stroke-width="16" stroke-linecap="round" d="M 81.73214285714286 399.91964285714283 C 81.73214285714286 245.95982142857142, 8 159.98392857142858, 8 108"/>
<rect x="-145.26785714285714" y="391.91964285714283" width="235" height="16" fill="#95bb64"/>
<path fill="none" stroke="#95bb64" stroke-width="10" stroke-linecap="round" d="M -173.3616071428571 541.1696428571429 C -158.8147321428571 541.1696428571429, -150.0866071428571 399.91964285714283, -144.2678571428571 399.91964285714283"/>
<rect x="-365.3616071428571" y="536.1696428571429" width="192" height="10" fill="#95bb64"/>
<path fill="none" stroke="#95bb64" stroke-width="6" stroke-linecap="round" d="M -439.3616071428571 542.7081043956044 C -401.8616071428571 542.7081043956044, -379.36160714285717 541.1696428571429, -364.36160714285717 541.1696428571429"/>
<rect x="-615.3616071428571" y="539.7081043956043" width="176" height="6" fill="#95bb64"/>
<path fill="none" stroke="#95bb64" stroke-width="4" stroke-linecap="round" d="M -689.361607142857 546.246565934066 C -651.861607142857 546.246565934066, -629.361607142857 542.7081043956044, -614.3616071428571 542.7081043956044"/>
<rect x="-845.361607142857" y="544.246565934066" width="156" height="4" fill="#95bb64"/>
<path fill="none" stroke="#95bb64" stroke-width="10" stroke-linecap="round" d="M -185.7991071428571 129.01165674603172 C -165.0334821428571 129.01165674603172, -152.57410714285712 399.9196428571428, -144.2678571428571 399.9196428571428"/>
<rect x="-384.7991071428571" y="124.01165674603172" width="199" height="10" fill="#95bb64"/>
<path fill="none" stroke="#95bb64" stroke-width="6" stroke-linecap="round" d="M -456.49141483516473 97.4731952075702 C -420.1452609890109 97.4731952075702, -398.3375686813186 129.01165674603175, -383.7991071428571 129.01165674603175"/>
<rect x="-632.4914148351647" y="94.4731952075702" width="176" height="6" fill="#95bb64"/>
<path fill="none" stroke="#95bb64" stroke-width="4" stroke-linecap="round" d="M -664.1837225274724 100.24242597680097 C -647.8375686813185 100.24242597680097, -638.0298763736263 97.4731952075702, -631.4914148351647 97.4731952075702"/>
<rect x="-820.1837225274724" y="98.24242597680097" width="156" height="4" fill="#95bb64"/>
<path fill="none" stroke="#95bb64" stroke-width="10" stroke-linecap="round" d="M -303.8147321428571 398.79464285714283 C -224.0412946428571 398.79464285714283, -176.17723214285712 399.91964285714283, -144.2678571428571 399.91964285714283"/>
<rect x="-513.8147321428571" y="393.79464285714283" width="210" height="10" fill="#95bb64"/>
<path fill="none" stroke="#95bb64" stroke-width="6" stroke-linecap="round" d="M -591.1480654761904 416.12797619047615 C -551.9813988095237 416.12797619047615, -528.4813988095237 398.79464285714283, -512.8147321428571 398.79464285714283"/>
<rect x="-797.1480654761904" y="413.12797619047615" width="206" height="6" fill="#95bb64"/>
<path fill="none" stroke="#95bb64" stroke-width="6" stroke-linecap="round" d="M -582.8147321428571 344.4613095238095 C -547.8147321428571 344.4613095238095, -526.8147321428571 398.79464285714283, -512.8147321428571 398.79464285714283"/>
<rect x="-788.8147321428571" y="341.4613095238095" width="206" height="6" fill="#95bb64"/>
<path fill="none" stroke="#95bb64" stroke-width="10" stroke-linecap="round" d="M -307.2678571428571 272.26339285714283 C -225.7678571428571 272.26339285714283, -176.8678571428571 399.91964285714283, -144.2678571428571 399.91964285714283"/>
<rect x="-490.2678571428571" y="267.26339285714283" width="183" height="10" fill="#95bb64"/>
<path fill="none" stroke="#95bb64" stroke-width="6" stroke-linecap="round" d="M -537.2777255639096 183.656484962406 C -513.2727913533834 183.656484962406, -498.8698308270676 272.26339285714283, -489.26785714285705 272.26339285714283"/>
<rect x="-748.2777255639096" y="180.656484962406" width="211" height="6" fill="#95bb64"/>
<path fill="none" stroke="#95bb64" stroke-width="6" stroke-linecap="round" d="M -597.8772321428571 269.41964285714283 C -543.5725446428571 269.41964285714283, -510.9897321428571 272.26339285714283, -489.2678571428571 272.26339285714283"/>
<rect x="-774.8772321428571" y="266.41964285714283" width="177" height="6" fill="#95bb64"/>
<path fill="none" stroke="#95bb64" stroke-width="4" stroke-linecap="round" d="M -822.8772321428571 241.41964285714283 C -798.3772321428571 241.41964285714283, -783.6772321428572 269.41964285714283, -773.8772321428571 269.41964285714283"/>
<rect x="-914.8772321428571" y="239.41964285714283" width="92" height="4" fill="#95bb64"/>
<path fill="none" stroke="#95bb64" stroke-width="4" stroke-linecap="round" d="M -841.3303571428571 312.34151785714283 C -807.6037946428571 312.34151785714283, -787.3678571428571 269.41964285714283, -773.8772321428571 269.41964285714283"/>
<rect x="-913.3303571428571" y="310.34151785714283" width="72" height="4" fill="#95bb64"/>
<line stroke="#ff0000" stroke-width="2" stroke-linecap="round" stroke-dasharray="8,8" x1="-563.5342154230423" y1="150.656484962406" x2="-285.2991071428571" y2="105.01165674603172"/>
<polygon points="-285.2991071428571,105.01165674603172 -296.16949414643165,112.87516018867852 -298.11214209911924,101.03344920876019" fill="#ff0000"/>
<line stroke="#ff0000" stroke-width="2" stroke-linecap="round" stroke-dasharray="8,8" x1="-648.5255611732645" y1="409.12797619047615" x2="-269.3616071428571" y2="517.1696428571429"/>
<polygon points="-269.3616071428571,517.1696428571429 -282.5464638937411,519.6514874249332 -279.2579968476197,508.1108641971099" fill="#ff0000"/>
<path stroke="#ff0000" stroke-width="2" stroke-linecap="round" stroke-dasharray="8,8" fill="none" d="M 949.0062344381096 39.101325757575765 C 1790.720056684346 54.96619415299301, 769.2564559278042 -16.320008126970514, 579.924388111888 -166.55572552447543"/>
<line stroke="#ff0000" stroke-width="2" stroke-linecap="round" stroke-dasharray="8,8" x1="717.1124861908365" y1="0.31818181818184144" x2="972.3366477272727" y2="52.101325757575765"/>
<line stroke="#ff0000" stroke-width="2" stroke-linecap="round" stroke-dasharray="8,8" x1="-843.791110095613" y1="239.16964285714283" x2="-877.3303571428571" y2="293.84151785714283"/>
<polygon points="-843.791110095613,239.16964285714283 -844.951698152999,252.53575805046108 -855.1803550846993,246.26084152722495" fill="#ff0000"/>
<polygon points="-877.3303571428571,293.84151785714283 -876.1697690854711,280.4754026638246 -865.9411121537709,286.7503191870607" fill="#ff0000"/>
<rect x="-169" y="16" width="338" height="100" rx="10" ry="10" fill="#ffffff" stroke="#726658" stroke-width="5"/>
<text x="0" y="44" fill="#000000" font-family="sans-serif" font-size="30" font-style="normal" font-weight="bold" text-anchor="middle">
<tspan x="0" y="44">ERKENNTNISTHEORIE</tspan>
<tspan x="0" y="74">wichtigste</tspan>
<tspan x="0" y="104">Denkrichtungen</tspan>
</text>
<rect x="124.57142857142856" y="-161.9017857142857" width="184" height="60" rx="10" ry="10" fill="#ffffff" stroke="#726658" stroke-width="5" stroke-dasharray="8,8"/>
<text x="216.57142857142856" y="-137.9017857142857" fill="#000000" font-family="sans-serif" font-size="25" font-style="normal" font-weight="bold" text-anchor="middle">
<tspan x="216.57142857142856" y="-137.9017857142857">⛲ QUELLEN</tspan>
<tspan x="216.57142857142856" y="-112.9017857142857">DES WISSENS</tspan>
</text>
<a xlink:href="https://de.wikipedia.org/wiki/Empirismus" target="_blank">
<rect x="312.57142857142856" y="-136.4017857142857" width="6" height="4" rx="2" ry="2" fill="none" stroke="#000000" stroke-width="1.4" transform="rotate(-35 315.57142857142856 -134.4017857142857)"/>
<rect x="317.57142857142856" y="-132.4017857142857" width="6" height="4" rx="2" ry="2" fill="none" stroke="#000000" stroke-width="1.4" transform="rotate(-35 320.57142857142856 -130.4017857142857)"/>
<line x1="316.57142857142856" y1="-132.4017857142857" x2="319.57142857142856" y2="-131.4017857142857" stroke="#000000" stroke-width="1.2" stroke-linecap="round"/>
</a>
<rect x="330.19642857142856" y="-360.96428571428567" width="182" height="30" rx="10" ry="10" fill="#ffffff" stroke="none" stroke-width="0"/>
<text x="421.19642857142856" y="-340.96428571428567" fill="#000000" font-family="sans-serif" font-size="20" font-style="normal" font-weight="bold" text-anchor="middle">EMPIRISMUS 👁️✋</text>
<a xlink:href="https://de.wikipedia.org/wiki/Empirismus" target="_blank">
<rect x="516.1964285714286" y="-350.46428571428567" width="6" height="4" rx="2" ry="2" fill="none" stroke="#000000" stroke-width="1.4" transform="rotate(-35 519.1964285714286 -348.46428571428567)"/>
<rect x="521.1964285714286" y="-346.46428571428567" width="6" height="4" rx="2" ry="2" fill="none" stroke="#000000" stroke-width="1.4" transform="rotate(-35 524.1964285714286 -344.46428571428567)"/>
<line x1="520.1964285714286" y1="-346.46428571428567" x2="523.1964285714286" y2="-345.46428571428567" stroke="#000000" stroke-width="1.2" stroke-linecap="round"/>
</a>
<rect x="565.1964285714284" y="-366.51116071428567" width="150" height="26" rx="10" ry="10" fill="#ffffff" stroke="none" stroke-width="0"/>
<text x="640.1964285714284" y="-349.71116071428565" fill="#000000" font-family="sans-serif" font-size="16" font-style="normal" font-weight="normal" text-anchor="middle">Sinnliche Erfahrung</text>
<rect x="366.24553571428567" y="-257.52678571428567" width="221" height="30" rx="10" ry="10" fill="#ffffff" stroke="none" stroke-width="0"/>
<text x="476.74553571428567" y="-237.52678571428567" fill="#000000" font-family="sans-serif" font-size="20" font-style="normal" font-weight="bold" text-anchor="middle">RATIONALISMUS 🧠📐</text>
<a xlink:href="https://de.wikipedia.org/wiki/Rationalismus" target="_blank">
<rect x="591.2455357142857" y="-247.02678571428567" width="6" height="4" rx="2" ry="2" fill="none" stroke="#000000" stroke-width="1.4" transform="rotate(-35 594.2455357142857 -245.02678571428567)"/>
<rect x="596.2455357142857" y="-243.02678571428567" width="6" height="4" rx="2" ry="2" fill="none" stroke="#000000" stroke-width="1.4" transform="rotate(-35 599.2455357142857 -241.02678571428567)"/>
<line x1="595.2455357142857" y1="-243.02678571428567" x2="598.2455357142857" y2="-242.02678571428567" stroke="#000000" stroke-width="1.2" stroke-linecap="round"/>
</a>
<rect x="614.1361607142857" y="-279.33668154761904" width="122" height="26" rx="10" ry="10" fill="#ffffff" stroke="none" stroke-width="0"/>
<text x="675.1361607142857" y="-262.536681547619" fill="#000000" font-family="sans-serif" font-size="16" font-style="normal" font-weight="normal" text-anchor="middle">Vernunft (Ratio)</text>
<rect x="215.44602272727272" y="126.6534090909091" width="306" height="60" rx="10" ry="10" fill="#ffffff" stroke="#726658" stroke-width="5" stroke-dasharray="8,8"/>
<text x="368.44602272727275" y="150.6534090909091" fill="#000000" font-family="sans-serif" font-size="25" font-style="normal" font-weight="bold" text-anchor="middle">
<tspan x="368.44602272727275" y="150.6534090909091">🏗️ AUFBAU - STRUKTUR</tspan>
<tspan x="368.44602272727275" y="175.6534090909091">DER RECHTFERTIGUNG</tspan>
</text>
<a xlink:href="https://de.wikipedia.org/wiki/Erkenntnistheoretischer_Fundamentalismus" target="_blank">
<rect x="525.4460227272727" y="152.1534090909091" width="6" height="4" rx="2" ry="2" fill="none" stroke="#000000" stroke-width="1.4" transform="rotate(-35 528.4460227272727 154.1534090909091)"/>
<rect x="530.4460227272727" y="156.1534090909091" width="6" height="4" rx="2" ry="2" fill="none" stroke="#000000" stroke-width="1.4" transform="rotate(-35 533.4460227272727 158.1534090909091)"/>
<line x1="529.4460227272727" y1="156.1534090909091" x2="532.4460227272727" y2="157.1534090909091" stroke="#000000" stroke-width="1.2" stroke-linecap="round"/>
</a>
<rect x="444.42438811188805" y="-181.55572552447543" width="271" height="30" rx="10" ry="10" fill="#ffffff" stroke="none" stroke-width="0"/>
<text x="579.924388111888" y="-161.55572552447543" fill="#000000" font-family="sans-serif" font-size="20" font-style="normal" font-weight="bold" text-anchor="middle">FUNDAMENTALISMUS 🧱🏗️</text>
<a xlink:href="https://de.wikipedia.org/wiki/Erkenntnistheoretischer_Fundamentalismus" target="_blank">
<rect x="719.424388111888" y="-171.05572552447543" width="6" height="4" rx="2" ry="2" fill="none" stroke="#000000" stroke-width="1.4" transform="rotate(-35 722.424388111888 -169.05572552447543)"/>
<rect x="724.424388111888" y="-167.05572552447543" width="6" height="4" rx="2" ry="2" fill="none" stroke="#000000" stroke-width="1.4" transform="rotate(-35 727.424388111888 -165.05572552447543)"/>
<line x1="723.424388111888" y1="-167.05572552447543" x2="726.424388111888" y2="-166.05572552447543" stroke="#000000" stroke-width="1.2" stroke-linecap="round"/>
</a>
<rect x="781.4361068618881" y="-211.84869427447543" width="285" height="26" rx="10" ry="10" fill="#ffffff" stroke="none" stroke-width="0"/>
<text x="923.9361068618881" y="-195.04869427447542" fill="#000000" font-family="Sans-serif" font-size="16" font-style="normal" font-weight="normal" text-anchor="middle">grundlegende &quot;Basis&quot;-Überzeugung 🧱</text>
<rect x="1081.6791624174436" y="-219.60911094114212" width="160" height="25" rx="10" ry="10" fill="#ffffff" stroke="none" stroke-width="0"/>
<text x="1161.6791624174436" y="-203.60911094114212" fill="#000000" font-family="sans-serif" font-size="15" font-style="normal" font-weight="normal" text-anchor="middle">ist selbstrechtfertigend</text>
<rect x="779.2779037368881" y="-132.39556927447543" width="264" height="26" rx="10" ry="10" fill="#ffffff" stroke="none" stroke-width="0"/>
<text x="911.2779037368881" y="-115.59556927447544" fill="#000000" font-family="Sans-serif" font-size="16" font-style="normal" font-weight="normal" text-anchor="middle">nicht grundlegende Überzeugungen</text>
<rect x="1052.676341236888" y="-134.40728802447543" width="284" height="25" rx="10" ry="10" fill="#ffffff" stroke="none" stroke-width="0"/>
<text x="1194.676341236888" y="-118.40728802447543" fill="#000000" font-family="sans-serif" font-size="15" font-style="normal" font-weight="normal" text-anchor="middle">gerechtfertigt durch andere Überzeugung</text>
<rect x="514.1818181818181" y="-29.68181818181816" width="258" height="30" rx="10" ry="10" fill="#ffffff" stroke="none" stroke-width="0"/>
<text x="643.1818181818181" y="-9.681818181818159" fill="#000000" font-family="sans-serif" font-size="20" font-style="normal" font-weight="bold" text-anchor="middle">KOHÄRENZTHEORIE 🕸️🧩</text>
<a xlink:href="https://de.wikipedia.org/wiki/Koh%C3%A4renztheorie#Koh%C3%A4renztheorien_der_Rechtfertigung_(Koh%C3%A4rentismus)" target="_blank">
<rect x="776.1818181818181" y="-19.18181818181816" width="6" height="4" rx="2" ry="2" fill="none" stroke="#000000" stroke-width="1.4" transform="rotate(-35 779.1818181818181 -17.18181818181816)"/>
<rect x="781.1818181818181" y="-15.181818181818159" width="6" height="4" rx="2" ry="2" fill="none" stroke="#000000" stroke-width="1.4" transform="rotate(-35 784.1818181818181 -13.181818181818159)"/>
<line x1="780.1818181818181" y1="-15.181818181818159" x2="783.1818181818181" y2="-14.181818181818159" stroke="#000000" stroke-width="1.2" stroke-linecap="round"/>
</a>
<rect x="811.4474431818182" y="-33.41228693181816" width="259" height="26" rx="10" ry="10" fill="#ffffff" stroke="none" stroke-width="0"/>
<text x="940.9474431818182" y="-16.612286931818158" fill="#000000" font-family="sans-serif" font-size="16" font-style="normal" font-weight="normal" text-anchor="middle">Rechtfertigung jeder Überzeugung:</text>
<rect x="1100.6782124125873" y="-42.643056162587385" width="163" height="40" rx="10" ry="10" fill="#ffffff" stroke="none" stroke-width="0"/>
<text x="1182.1782124125873" y="-26.643056162587385" fill="#000000" font-family="Sans-serif" font-size="15" font-style="normal" font-weight="normal" text-anchor="middle">
<tspan x="1182.1782124125873" y="-26.643056162587385">abhängig von anderen </tspan>
<tspan x="1182.1782124125873" y="-11.643056162587385">Überzeugungen 🕸️</tspan>
</text>
<rect x="540.5415088383838" y="166.63604797979798" width="252" height="30" rx="10" ry="10" fill="#ffffff" stroke="none" stroke-width="0"/>
<text x="666.5415088383838" y="186.63604797979798" fill="#000000" font-family="sans-serif" font-size="20" font-style="normal" font-weight="bold" text-anchor="middle">FOUNDHERENTISMUS 📝</text>
<a xlink:href="https://en.wikipedia.org/wiki/Foundherentism" target="_blank">
<rect x="796.5415088383838" y="177.13604797979798" width="6" height="4" rx="2" ry="2" fill="none" stroke="#000000" stroke-width="1.4" transform="rotate(-35 799.5415088383838 179.13604797979798)"/>
<rect x="801.5415088383838" y="181.13604797979798" width="6" height="4" rx="2" ry="2" fill="none" stroke="#000000" stroke-width="1.4" transform="rotate(-35 804.5415088383838 183.13604797979798)"/>
<line x1="800.5415088383838" y1="181.13604797979798" x2="803.5415088383838" y2="182.13604797979798" stroke="#000000" stroke-width="1.2" stroke-linecap="round"/>
</a>
<rect x="905.8366477272727" y="39.101325757575765" width="133" height="26" rx="10" ry="10" fill="#ffffff" stroke="none" stroke-width="0"/>
<text x="972.3366477272727" y="55.90132575757576" fill="#000000" font-family="sans-serif" font-size="16" font-style="normal" font-weight="normal" text-anchor="middle">Zwischenposition</text>
<rect x="872.4946338383838" y="117.14386047979798" width="271" height="26" rx="10" ry="10" fill="#ffffff" stroke="none" stroke-width="0"/>
<text x="1007.9946338383838" y="133.943860479798" fill="#000000" font-family="Sans-serif" font-size="16" font-style="normal" font-weight="normal" text-anchor="middle">akzeptiert Unterscheidung zwischen:</text>
<rect x="1165.0336963383838" y="75.93292297979798" width="281" height="25" rx="10" ry="10" fill="#ffffff" stroke="none" stroke-width="0"/>
<text x="1305.5336963383838" y="91.93292297979798" fill="#000000" font-family="Sans-serif" font-size="15" font-style="normal" font-weight="normal" text-anchor="middle">grundlegenden Basis Überzeugungen 🧱</text>
<rect x="1167.0063525883838" y="137.18292297979798" width="258" height="25" rx="10" ry="10" fill="#ffffff" stroke="none" stroke-width="0"/>
<text x="1296.0063525883838" y="153.18292297979798" fill="#000000" font-family="Sans-serif" font-size="15" font-style="normal" font-weight="normal" text-anchor="middle">nicht-grundlegenden Überzeugungen</text>
<rect x="854.0961963383838" y="195.19073547979798" width="157" height="58" rx="10" ry="10" fill="#ffffff" stroke="none" stroke-width="0"/>
<text x="932.5961963383838" y="211.990735479798" fill="#000000" font-family="Sans-serif" font-size="16" font-style="normal" font-weight="normal" text-anchor="middle">
<tspan x="932.5961963383838" y="211.990735479798">Rechtfertigung </tspan>
<tspan x="932.5961963383838" y="227.990735479798">nicht-grundlegender </tspan>
<tspan x="932.5961963383838" y="243.990735479798">Überzeugungen</tspan>
</text>
<rect x="1110.6977588383838" y="204.66339172979798" width="210" height="40" rx="10" ry="10" fill="#ffffff" stroke="none" stroke-width="0"/>
<text x="1215.6977588383838" y="220.66339172979798" fill="#000000" font-family="Sans-serif" font-size="15" font-style="normal" font-weight="normal" text-anchor="middle">
<tspan x="1215.6977588383838" y="220.66339172979798">abhängig von Kohärenz mit </tspan>
<tspan x="1215.6977588383838" y="235.66339172979798">anderen Überzeugungen 🕸️🧩</tspan>
</text>
<rect x="309.1960227272727" y="430.20251623376623" width="169" height="30" rx="10" ry="10" fill="#ffffff" stroke="none" stroke-width="0"/>
<text x="393.6960227272727" y="450.20251623376623" fill="#000000" font-family="sans-serif" font-size="20" font-style="normal" font-weight="bold" text-anchor="middle">INFINITISMUS ♾️</text>
<a xlink:href="https://en.wikipedia.org/wiki/Infinitism &quot;Infinitism&quot;" target="_blank">
<rect x="482.1960227272727" y="440.70251623376623" width="6" height="4" rx="2" ry="2" fill="none" stroke="#000000" stroke-width="1.4" transform="rotate(-35 485.1960227272727 442.70251623376623)"/>
<rect x="487.1960227272727" y="444.70251623376623" width="6" height="4" rx="2" ry="2" fill="none" stroke="#000000" stroke-width="1.4" transform="rotate(-35 490.1960227272727 446.70251623376623)"/>
<line x1="486.1960227272727" y1="444.70251623376623" x2="489.1960227272727" y2="445.70251623376623" stroke="#000000" stroke-width="1.2" stroke-linecap="round"/>
</a>
<rect x="634.1178977272726" y="401.8096590909091" width="321" height="26" rx="10" ry="10" fill="#ffffff" stroke="none" stroke-width="0"/>
<text x="794.6178977272726" y="418.60965909090913" fill="#000000" font-family="sans-serif" font-size="16" font-style="normal" font-weight="normal" text-anchor="middle">keine grundlegenden Basis Überzeugungen</text>
<rect x="569.1960227272726" y="322.34537337662334" width="171" height="26" rx="10" ry="10" fill="#ffffff" stroke="none" stroke-width="0"/>
<text x="654.6960227272726" y="339.14537337662335" fill="#000000" font-family="Sans-serif" font-size="16" font-style="normal" font-weight="normal" text-anchor="middle">Rechtfertigung Wissen</text>
<rect x="768.481737012987" y="311.6310876623377" width="254" height="25" rx="10" ry="10" fill="#ffffff" stroke="none" stroke-width="0"/>
<text x="895.481737012987" y="327.6310876623377" fill="#000000" font-family="Sans-serif" font-size="15" font-style="normal" font-weight="normal" text-anchor="middle">durch unendliche Kette von Gründen</text>
<rect x="-196.9241071428571" y="-151.47767857142856" width="175" height="60" rx="10" ry="10" fill="#ffffff" stroke="#726658" stroke-width="5" stroke-dasharray="8,8"/>
<text x="-109.42410714285711" y="-127.47767857142856" fill="#000000" font-family="Sans-serif" font-size="25" font-style="normal" font-weight="bold" text-anchor="middle">
<tspan x="-109.42410714285711" y="-127.47767857142856">🔒 GRAD DER</tspan>
<tspan x="-109.42410714285711" y="-102.47767857142856">GEWISSHEIT</tspan>
</text>
<rect x="-227.28124999999997" y="-321.4553571428571" width="203" height="30" rx="10" ry="10" fill="#ffffff" stroke="none" stroke-width="0"/>
<text x="-125.78124999999997" y="-301.4553571428571" fill="#000000" font-family="sans-serif" font-size="20" font-style="normal" font-weight="bold" text-anchor="middle">SKEPTIZISMUS ❓🧐</text>
<a xlink:href="https://de.wikipedia.org/wiki/Skeptizismus" target="_blank">
<rect x="-20.28124999999997" y="-310.9553571428571" width="6" height="4" rx="2" ry="2" fill="none" stroke="#000000" stroke-width="1.4" transform="rotate(-35 -17.28124999999997 -308.9553571428571)"/>
<rect x="-15.281249999999972" y="-306.9553571428571" width="6" height="4" rx="2" ry="2" fill="none" stroke="#000000" stroke-width="1.4" transform="rotate(-35 -12.281249999999972 -304.9553571428571)"/>
<line x1="-16.28124999999997" y1="-306.9553571428571" x2="-13.281249999999972" y2="-305.9553571428571" stroke="#000000" stroke-width="1.2" stroke-linecap="round"/>
</a>
<rect x="-509.7812499999999" y="-463.39546130952374" width="331" height="26" rx="10" ry="10" fill="#ffffff" stroke="none" stroke-width="0"/>
<text x="-344.2812499999999" y="-446.5954613095237" fill="#000000" font-family="sans-serif" font-size="16" font-style="normal" font-weight="normal" text-anchor="middle">Zweifel an Möglichkeit gesicherter Erkenntnis</text>
<rect x="-542.8411458333333" y="-413.12202380952374" width="248" height="26" rx="10" ry="10" fill="#ffffff" stroke="none" stroke-width="0"/>
<text x="-418.84114583333326" y="-396.3220238095237" fill="#000000" font-family="sans-serif" font-size="16" font-style="normal" font-weight="normal" text-anchor="middle">Hinterfragen der Grundlagen von:</text>
<rect x="-674.5078125" y="-463.9553571428571" width="80" height="25" rx="10" ry="10" fill="#ffffff" stroke="none" stroke-width="0"/>
<text x="-634.5078125" y="-447.9553571428571" fill="#000000" font-family="Sans-serif" font-size="15" font-style="normal" font-weight="normal" text-anchor="middle">Wissen</text>
<rect x="-717.8411458333333" y="-416.4553571428571" width="117" height="25" rx="10" ry="10" fill="#ffffff" stroke="none" stroke-width="0"/>
<text x="-659.3411458333333" y="-400.4553571428571" fill="#000000" font-family="Sans-serif" font-size="15" font-style="normal" font-weight="normal" text-anchor="middle">Überzeugungen</text>
<rect x="-706.1744791666665" y="-375.62202380952374" width="80" height="25" rx="10" ry="10" fill="#ffffff" stroke="none" stroke-width="0"/>
<text x="-666.1744791666665" y="-359.62202380952374" fill="#000000" font-family="Sans-serif" font-size="15" font-style="normal" font-weight="normal" text-anchor="middle">Wahrheit</text>
<rect x="-420.27604166666663" y="-283.8381696428571" width="131" height="26" rx="10" ry="10" fill="#ffffff" stroke="none" stroke-width="0"/>
<text x="-354.77604166666663" y="-267.0381696428571" fill="#000000" font-family="sans-serif" font-size="16" font-style="normal" font-weight="normal" text-anchor="middle">Klassifizierungen</text>
<a xlink:href="https://en.wikipedia.org/wiki/Philosophical_skepticism#Classification" target="_blank">
<rect x="-285.27604166666663" y="-275.3381696428571" width="6" height="4" rx="2" ry="2" fill="none" stroke="#000000" stroke-width="1.4" transform="rotate(-35 -282.27604166666663 -273.3381696428571)"/>
<rect x="-280.27604166666663" y="-271.3381696428571" width="6" height="4" rx="2" ry="2" fill="none" stroke="#000000" stroke-width="1.4" transform="rotate(-35 -277.27604166666663 -269.3381696428571)"/>
<line x1="-281.27604166666663" y1="-271.3381696428571" x2="-278.27604166666663" y2="-270.3381696428571" stroke="#000000" stroke-width="1.2" stroke-linecap="round"/>
</a>
<rect x="-619.6249999999999" y="-330.27046130952374" width="144" height="25" rx="10" ry="10" fill="#ffffff" stroke="none" stroke-width="0"/>
<text x="-547.6249999999999" y="-314.27046130952374" fill="#000000" font-family="sans-serif" font-size="15" font-style="normal" font-weight="normal" text-anchor="middle">Lokaler Skeptizimus</text>
<a xlink:href="https://en.wikipedia.org/wiki/Local_skepticism" target="_blank">
<rect x="-471.6249999999999" y="-322.27046130952374" width="6" height="4" rx="2" ry="2" fill="none" stroke="#000000" stroke-width="1.4" transform="rotate(-35 -468.6249999999999 -320.27046130952374)"/>
<rect x="-466.6249999999999" y="-318.27046130952374" width="6" height="4" rx="2" ry="2" fill="none" stroke="#000000" stroke-width="1.4" transform="rotate(-35 -463.6249999999999 -316.27046130952374)"/>
<line x1="-467.6249999999999" y1="-318.27046130952374" x2="-464.6249999999999" y2="-317.27046130952374" stroke="#000000" stroke-width="1.2" stroke-linecap="round"/>
</a>
<rect x="-887.1971153846152" y="-329.63344207875457" width="234" height="25" rx="10" ry="10" fill="#ffffff" stroke="none" stroke-width="0"/>
<text x="-770.1971153846152" y="-313.63344207875457" fill="#000000" font-family="sans-serif" font-size="15" font-style="normal" font-weight="normal" text-anchor="middle">auf spezifischen Bereich bezogen</text>
<rect x="-717.7239583333333" y="-259.3980654761905" width="237" height="25" rx="10" ry="10" fill="#ffffff" stroke="none" stroke-width="0"/>
<text x="-599.2239583333333" y="-243.39806547619045" fill="#000000" font-family="sans-serif" font-size="15" font-style="normal" font-weight="normal" text-anchor="middle">Radikaler (Globaler) Skeptizismus</text>
<a xlink:href="https://en.wikipedia.org/wiki/Radical_skepticism" target="_blank">
<rect x="-476.72395833333326" y="-251.39806547619048" width="6" height="4" rx="2" ry="2" fill="none" stroke="#000000" stroke-width="1.4" transform="rotate(-35 -473.72395833333326 -249.39806547619048)"/>
<rect x="-471.72395833333326" y="-247.39806547619048" width="6" height="4" rx="2" ry="2" fill="none" stroke="#000000" stroke-width="1.4" transform="rotate(-35 -468.72395833333326 -245.39806547619048)"/>
<line x1="-472.72395833333326" y1="-247.39806547619048" x2="-469.72395833333326" y2="-246.39806547619048" stroke="#000000" stroke-width="1.2" stroke-linecap="round"/>
</a>
<rect x="-934.8393429487179" y="-261.1829212454212" width="189" height="25" rx="10" ry="10" fill="#ffffff" stroke="none" stroke-width="0"/>
<text x="-840.3393429487179" y="-245.1829212454212" fill="#000000" font-family="sans-serif" font-size="15" font-style="normal" font-weight="normal" text-anchor="middle">Wissen generell unmöglich</text>
<rect x="-467.0133928571428" y="-91.29910714285714" width="207" height="30" rx="10" ry="10" fill="#ffffff" stroke="none" stroke-width="0"/>
<text x="-363.5133928571428" y="-71.29910714285714" fill="#000000" font-family="Sans-serif" font-size="20" font-style="normal" font-weight="bold" text-anchor="middle">FALLIBILISMUS 🩹⚠️</text>
<a xlink:href="https://de.wikipedia.org/wiki/Fallibilismus" target="_blank">
<rect x="-256.0133928571428" y="-80.79910714285714" width="6" height="4" rx="2" ry="2" fill="none" stroke="#000000" stroke-width="1.4" transform="rotate(-35 -253.01339285714278 -78.79910714285714)"/>
<rect x="-251.01339285714278" y="-76.79910714285714" width="6" height="4" rx="2" ry="2" fill="none" stroke="#000000" stroke-width="1.4" transform="rotate(-35 -248.01339285714278 -74.79910714285714)"/>
<line x1="-252.01339285714278" y1="-76.79910714285714" x2="-249.01339285714278" y2="-75.79910714285714" stroke="#000000" stroke-width="1.2" stroke-linecap="round"/>
</a>
<rect x="-832.963913690476" y="-177.5100446428571" width="328" height="26" rx="10" ry="10" fill="#ffffff" stroke="none" stroke-width="0"/>
<text x="-668.963913690476" y="-160.7100446428571" fill="#000000" font-family="sans-serif" font-size="16" font-style="normal" font-weight="normal" text-anchor="middle">Es kann keine absolute Gewissheit geben 🔴</text>
<rect x="-830.7633928571427" y="-102.8095238095238" width="280" height="26" rx="10" ry="10" fill="#ffffff" stroke="none" stroke-width="0"/>
<text x="-690.7633928571427" y="-86.0095238095238" fill="#000000" font-family="sans-serif" font-size="16" font-style="normal" font-weight="normal" text-anchor="middle">Es kann fehlbares Wissen geben 🟢⚠️</text>
<rect x="-835.4769345238094" y="-34.33296130952381" width="339" height="26" rx="10" ry="10" fill="#ffffff" stroke="none" stroke-width="0"/>
<text x="-665.9769345238094" y="-17.53296130952381" fill="#000000" font-family="sans-serif" font-size="16" font-style="normal" font-weight="normal" text-anchor="middle">setzt voraus dass es absolute Wahrheit gibt ⚠️</text>
<rect x="-149.26785714285714" y="327.91964285714283" width="243" height="60" rx="10" ry="10" fill="#ffffff" stroke="#726658" stroke-width="5" stroke-dasharray="8,8"/>
<text x="-27.76785714285714" y="351.91964285714283" fill="#000000" font-family="Sans-serif" font-size="25" font-style="normal" font-weight="bold" text-anchor="middle">
<tspan x="-27.76785714285714" y="351.91964285714283">🚪 ZUGANG DER</tspan>
<tspan x="-27.76785714285714" y="376.91964285714283">RECHTFERTIGUNG</tspan>
</text>
<rect x="-369.3616071428571" y="502.16964285714283" width="200" height="30" rx="10" ry="10" fill="#ffffff" stroke="none" stroke-width="0"/>
<text x="-269.3616071428571" y="522.1696428571429" fill="#000000" font-family="sans-serif" font-size="20" font-style="normal" font-weight="bold" text-anchor="middle">INTERNALISMUS 🔦</text>
<a xlink:href="https://de.wikipedia.org/wiki/Externalismus_und_Internalismus" target="_blank">
<rect x="-165.3616071428571" y="512.6696428571429" width="6" height="4" rx="2" ry="2" fill="none" stroke="#000000" stroke-width="1.4" transform="rotate(-35 -162.3616071428571 514.6696428571429)"/>
<rect x="-160.3616071428571" y="516.6696428571429" width="6" height="4" rx="2" ry="2" fill="none" stroke="#000000" stroke-width="1.4" transform="rotate(-35 -157.3616071428571 518.6696428571429)"/>
<line x1="-161.3616071428571" y1="516.6696428571429" x2="-158.3616071428571" y2="517.6696428571429" stroke="#000000" stroke-width="1.2" stroke-linecap="round"/>
</a>
<rect x="-619.3616071428571" y="493.7081043956044" width="184" height="42" rx="10" ry="10" fill="#ffffff" stroke="none" stroke-width="0"/>
<text x="-527.3616071428571" y="510.5081043956044" fill="#000000" font-family="Sans-serif" font-size="16" font-style="normal" font-weight="normal" text-anchor="middle">
<tspan x="-527.3616071428571" y="510.5081043956044">Rechtfertigung abhängig</tspan>
<tspan x="-527.3616071428571" y="526.5081043956044">von Faktoren:</tspan>
</text>
<rect x="-849.361607142857" y="485.2465659340659" width="164" height="55" rx="10" ry="10" fill="#ffffff" stroke="none" stroke-width="0"/>
<text x="-767.361607142857" y="501.2465659340659" fill="#000000" font-family="Sans-serif" font-size="15" font-style="normal" font-weight="normal" text-anchor="middle">
<tspan x="-767.361607142857" y="501.2465659340659">innerhalb der </tspan>
<tspan x="-767.361607142857" y="516.246565934066">kognitiven Perspektive </tspan>
<tspan x="-767.361607142857" y="531.246565934066">des Subjekts</tspan>
</text>
<rect x="-388.7991071428571" y="90.01165674603172" width="207" height="30" rx="10" ry="10" fill="#ffffff" stroke="none" stroke-width="0"/>
<text x="-285.2991071428571" y="110.01165674603172" fill="#000000" font-family="sans-serif" font-size="20" font-style="normal" font-weight="bold" text-anchor="middle">EXTERNALISMUS 📡</text>
<a xlink:href="https://de.wikipedia.org/wiki/Externalismus_und_Internalismus" target="_blank">
<rect x="-177.7991071428571" y="100.51165674603172" width="6" height="4" rx="2" ry="2" fill="none" stroke="#000000" stroke-width="1.4" transform="rotate(-35 -174.7991071428571 102.51165674603172)"/>
<rect x="-172.7991071428571" y="104.51165674603172" width="6" height="4" rx="2" ry="2" fill="none" stroke="#000000" stroke-width="1.4" transform="rotate(-35 -169.7991071428571 106.51165674603172)"/>
<line x1="-173.7991071428571" y1="104.51165674603172" x2="-170.7991071428571" y2="105.51165674603172" stroke="#000000" stroke-width="1.2" stroke-linecap="round"/>
</a>
<rect x="-636.4914148351647" y="48.4731952075702" width="184" height="42" rx="10" ry="10" fill="#ffffff" stroke="none" stroke-width="0"/>
<text x="-544.4914148351647" y="65.2731952075702" fill="#000000" font-family="Sans-serif" font-size="16" font-style="normal" font-weight="normal" text-anchor="middle">
<tspan x="-544.4914148351647" y="65.2731952075702">Rechtfertigung abhängig</tspan>
<tspan x="-544.4914148351647" y="81.2731952075702">von Faktoren:</tspan>
</text>
<rect x="-824.1837225274724" y="39.24242597680097" width="164" height="55" rx="10" ry="10" fill="#ffffff" stroke="none" stroke-width="0"/>
<text x="-742.1837225274724" y="55.24242597680097" fill="#000000" font-family="Sans-serif" font-size="15" font-style="normal" font-weight="normal" text-anchor="middle">
<tspan x="-742.1837225274724" y="55.24242597680097">ausserhalb der </tspan>
<tspan x="-742.1837225274724" y="70.24242597680097">kognitiven Perspektive </tspan>
<tspan x="-742.1837225274724" y="85.24242597680097">des Subjekts</tspan>
</text>
<rect x="-517.8147321428571" y="359.79464285714283" width="218" height="30" rx="10" ry="10" fill="#ffffff" stroke="none" stroke-width="0"/>
<text x="-408.8147321428571" y="379.79464285714283" fill="#000000" font-family="sans-serif" font-size="20" font-style="normal" font-weight="bold" text-anchor="middle">EVIDENTIALISMUS 📂</text>
<a xlink:href="https://en.wikipedia.org/wiki/Evidentialism" target="_blank">
<rect x="-295.8147321428571" y="370.29464285714283" width="6" height="4" rx="2" ry="2" fill="none" stroke="#000000" stroke-width="1.4" transform="rotate(-35 -292.8147321428571 372.29464285714283)"/>
<rect x="-290.8147321428571" y="374.29464285714283" width="6" height="4" rx="2" ry="2" fill="none" stroke="#000000" stroke-width="1.4" transform="rotate(-35 -287.8147321428571 376.29464285714283)"/>
<line x1="-291.8147321428571" y1="374.29464285714283" x2="-288.8147321428571" y2="375.29464285714283" stroke="#000000" stroke-width="1.2" stroke-linecap="round"/>
</a>
<rect x="-801.1480654761904" y="383.12797619047615" width="214" height="26" rx="10" ry="10" fill="#ffffff" stroke="none" stroke-width="0"/>
<text x="-694.1480654761904" y="399.92797619047616" fill="#000000" font-family="sans-serif" font-size="16" font-style="normal" font-weight="normal" text-anchor="middle">Eine Form des Internalismus</text>
<rect x="-792.8147321428571" y="311.4613095238095" width="214" height="26" rx="10" ry="10" fill="#ffffff" stroke="none" stroke-width="0"/>
<text x="-685.8147321428571" y="328.26130952380953" fill="#000000" font-family="sans-serif" font-size="16" font-style="normal" font-weight="normal" text-anchor="middle">Rechtfertigung mit Beweisen</text>
<rect x="-494.2678571428571" y="233.26339285714283" width="191" height="30" rx="10" ry="10" fill="#ffffff" stroke="none" stroke-width="0"/>
<text x="-398.7678571428571" y="253.26339285714283" fill="#000000" font-family="sans-serif" font-size="20" font-style="normal" font-weight="bold" text-anchor="middle">RELIABILISMUS 🛠️</text>
<a xlink:href="https://en.wikipedia.org/wiki/Reliabilism" target="_blank">
<rect x="-299.2678571428571" y="243.76339285714283" width="6" height="4" rx="2" ry="2" fill="none" stroke="#000000" stroke-width="1.4" transform="rotate(-35 -296.2678571428571 245.76339285714283)"/>
<rect x="-294.2678571428571" y="247.76339285714283" width="6" height="4" rx="2" ry="2" fill="none" stroke="#000000" stroke-width="1.4" transform="rotate(-35 -291.2678571428571 249.76339285714283)"/>
<line x1="-295.2678571428571" y1="247.76339285714283" x2="-292.2678571428571" y2="248.76339285714283" stroke="#000000" stroke-width="1.2" stroke-linecap="round"/>
</a>
<rect x="-752.2777255639096" y="150.656484962406" width="219" height="26" rx="10" ry="10" fill="#ffffff" stroke="none" stroke-width="0"/>
<text x="-642.7777255639096" y="167.45648496240602" fill="#000000" font-family="sans-serif" font-size="16" font-style="normal" font-weight="normal" text-anchor="middle">Eine Form des Externalismus</text>
<rect x="-778.8772321428571" y="220.41964285714283" width="185" height="42" rx="10" ry="10" fill="#ffffff" stroke="none" stroke-width="0"/>
<text x="-686.3772321428571" y="237.21964285714284" fill="#000000" font-family="Sans-serif" font-size="16" font-style="normal" font-weight="normal" text-anchor="middle">
<tspan x="-686.3772321428571" y="237.21964285714284">Verlässliche Verbindung </tspan>
<tspan x="-686.3772321428571" y="253.21964285714284">erfoderlich zwischen:</tspan>
</text>
<rect x="-918.8772321428571" y="210.41964285714283" width="100" height="25" rx="10" ry="10" fill="#ffffff" stroke="none" stroke-width="0"/>
<text x="-868.8772321428571" y="226.41964285714283" fill="#000000" font-family="Sans-serif" font-size="15" font-style="normal" font-weight="normal" text-anchor="middle">Überzeugung</text>
<rect x="-917.3303571428571" y="281.34151785714283" width="80" height="25" rx="10" ry="10" fill="#ffffff" stroke="none" stroke-width="0"/>
<text x="-877.3303571428571" y="297.34151785714283" fill="#000000" font-family="Sans-serif" font-size="15" font-style="normal" font-weight="normal" text-anchor="middle">Wahrheit</text>
</g>
</svg>