<?xml version="1.0" encoding="UTF-8"?>
<svg xmlns="http://www.w3.org/2000/svg" xmlns:xlink="http://www.w3.org/1999/xlink" width="100%" viewBox="0 0 2894.176377342677 1932.6663126063347">
<rect x="0" y="0" width="2894.176377342677" height="1932.6663126063347" fill="#ffffff"/>
<g transform="translate(1359.4886538953815 927.7609764989409)">
<path fill="none" stroke="#e63946" stroke-width="10" stroke-linecap="round" d="M 210.81512463166464 -674.1594995367351 C 105.40756231583232 -674.1594995367351, 42.16302492633293 96, 0 96"/>
<rect x="209.81512463166464" y="-679.1594995367351" width="174" height="10" fill="#e63946"/>
<path fill="none" stroke="#e63946" stroke-width="8" stroke-linecap="round" d="M 671.4064402057317 -867.7609764989409 C 527.6107824186981 -867.7609764989409, 441.3333877464781 -674.1594995367352, 383.8151246316647 -674.1594995367352"/>
<rect x="670.4064402057317" y="-871.7609764989409" width="755" height="8" fill="#e63946"/>
<path fill="none" stroke="#e63946" stroke-width="8" stroke-linecap="round" d="M 671.4064402057317 -790.7609764989409 C 527.6107824186981 -790.7609764989409, 441.3333877464781 -674.1594995367352, 383.8151246316647 -674.1594995367352"/>
<rect x="670.4064402057317" y="-794.7609764989409" width="497" height="8" fill="#e63946"/>
<path fill="none" stroke="#e63946" stroke-width="8" stroke-linecap="round" d="M 671.4064402057317 -702.7609764989409 C 527.6107824186981 -702.7609764989409, 441.3333877464781 -674.1594995367352, 383.8151246316647 -674.1594995367352"/>
<rect x="670.4064402057317" y="-706.7609764989409" width="100" height="8" fill="#e63946"/>
<path fill="none" stroke="#e63946" stroke-width="6" stroke-linecap="round" d="M 831.4064402057317 -743.7609764989409 C 800.9064402057317 -743.7609764989409, 782.6064402057317 -702.7609764989409, 770.4064402057317 -702.7609764989409"/>
<rect x="830.4064402057317" y="-746.7609764989409" width="72" height="6" fill="#e63946"/>
<path fill="none" stroke="#e63946" stroke-width="6" stroke-linecap="round" d="M 831.4064402057317 -707.7609764989409 C 800.9064402057317 -707.7609764989409, 782.6064402057317 -702.7609764989409, 770.4064402057317 -702.7609764989409"/>
<rect x="830.4064402057317" y="-710.7609764989409" width="72" height="6" fill="#e63946"/>
<path fill="none" stroke="#e63946" stroke-width="6" stroke-linecap="round" d="M 831.4064402057317 -671.7609764989409 C 800.9064402057317 -671.7609764989409, 782.6064402057317 -702.7609764989409, 770.4064402057317 -702.7609764989409"/>
<rect x="830.4064402057317" y="-674.7609764989409" width="72" height="6" fill="#e63946"/>
<path fill="none" stroke="#e63946" stroke-width="8" stroke-linecap="round" d="M 671.4064402057317 -623.7609764989409 C 527.6107824186981 -623.7609764989409, 441.3333877464781 -674.1594995367352, 383.8151246316647 -674.1594995367352"/>
<rect x="670.4064402057317" y="-627.7609764989409" width="106" height="8" fill="#e63946"/>
<path fill="none" stroke="#e63946" stroke-width="6" stroke-linecap="round" d="M 831.4064402057317 -628.7609764989409 C 803.9064402057317 -628.7609764989409, 787.4064402057317 -623.7609764989409, 776.4064402057317 -623.7609764989409"/>
<rect x="830.4064402057317" y="-631.7609764989409" width="233" height="6" fill="#e63946"/>
<path fill="none" stroke="#e63946" stroke-width="8" stroke-linecap="round" d="M 671.4064402057317 -564.7609764989409 C 527.6107824186981 -564.7609764989409, 441.3333877464781 -674.1594995367352, 383.8151246316647 -674.1594995367352"/>
<rect x="670.4064402057317" y="-568.7609764989409" width="534" height="8" fill="#e63946"/>
<path fill="none" stroke="#ff7f11" stroke-width="10" stroke-linecap="round" d="M 253.18960143742038 -253.7752143634737 C 126.59480071871019 -253.7752143634737, 50.63792028748408 96, 0 96"/>
<rect x="252.18960143742038" y="-258.7752143634737" width="196" height="10" fill="#ff7f11"/>
<path fill="none" stroke="#ff7f11" stroke-width="8" stroke-linecap="round" d="M 722.7809170114874 -476.3766913256794 C 585.4852592244539 -476.3766913256794, 503.1078645522338 -253.7752143634737, 448.18960143742044 -253.7752143634737"/>
<rect x="721.7809170114874" y="-480.3766913256794" width="641" height="8" fill="#ff7f11"/>
<path fill="none" stroke="#ff7f11" stroke-width="8" stroke-linecap="round" d="M 722.7809170114874 -399.3766913256794 C 585.4852592244539 -399.3766913256794, 503.1078645522338 -253.7752143634737, 448.18960143742044 -253.7752143634737"/>
<rect x="721.7809170114874" y="-403.3766913256794" width="655" height="8" fill="#ff7f11"/>
<path fill="none" stroke="#ff7f11" stroke-width="8" stroke-linecap="round" d="M 722.7809170114874 -331.3766913256794 C 585.4852592244539 -331.3766913256794, 503.1078645522338 -253.7752143634737, 448.18960143742044 -253.7752143634737"/>
<rect x="721.7809170114874" y="-335.3766913256794" width="394" height="8" fill="#ff7f11"/>
<path fill="none" stroke="#ff7f11" stroke-width="8" stroke-linecap="round" d="M 722.7809170114874 -252.37669132567942 C 585.4852592244539 -252.37669132567942, 503.1078645522338 -253.7752143634737, 448.18960143742044 -253.7752143634737"/>
<rect x="721.7809170114874" y="-256.3766913256794" width="100" height="8" fill="#ff7f11"/>
<path fill="none" stroke="#ff7f11" stroke-width="6" stroke-linecap="round" d="M 882.7809170114874 -293.3766913256794 C 852.2809170114874 -293.3766913256794, 833.9809170114875 -252.37669132567942, 821.7809170114874 -252.37669132567942"/>
<rect x="881.7809170114874" y="-296.3766913256794" width="74" height="6" fill="#ff7f11"/>
<path fill="none" stroke="#ff7f11" stroke-width="6" stroke-linecap="round" d="M 882.7809170114874 -257.3766913256794 C 852.2809170114874 -257.3766913256794, 833.9809170114875 -252.37669132567942, 821.7809170114874 -252.37669132567942"/>
<rect x="881.7809170114874" y="-260.3766913256794" width="72" height="6" fill="#ff7f11"/>
<path fill="none" stroke="#ff7f11" stroke-width="6" stroke-linecap="round" d="M 882.7809170114874 -221.37669132567942 C 852.2809170114874 -221.37669132567942, 833.9809170114875 -252.37669132567942, 821.7809170114874 -252.37669132567942"/>
<rect x="881.7809170114874" y="-224.37669132567942" width="72" height="6" fill="#ff7f11"/>
<path fill="none" stroke="#ff7f11" stroke-width="8" stroke-linecap="round" d="M 722.7809170114874 -144.37669132567942 C 585.4852592244539 -144.37669132567942, 503.1078645522338 -253.7752143634737, 448.18960143742044 -253.7752143634737"/>
<rect x="721.7809170114874" y="-148.37669132567942" width="106" height="8" fill="#ff7f11"/>
<path fill="none" stroke="#ff7f11" stroke-width="6" stroke-linecap="round" d="M 882.7809170114874 -185.37669132567942 C 855.2809170114874 -185.37669132567942, 838.7809170114874 -144.37669132567942, 827.7809170114874 -144.37669132567942"/>
<rect x="881.7809170114874" y="-188.37669132567942" width="172" height="6" fill="#ff7f11"/>
<path fill="none" stroke="#ff7f11" stroke-width="6" stroke-linecap="round" d="M 882.7809170114874 -149.37669132567942 C 855.2809170114874 -149.37669132567942, 838.7809170114874 -144.37669132567942, 827.7809170114874 -144.37669132567942"/>
<rect x="881.7809170114874" y="-152.37669132567942" width="151" height="6" fill="#ff7f11"/>
<path fill="none" stroke="#ff7f11" stroke-width="6" stroke-linecap="round" d="M 882.7809170114874 -113.37669132567942 C 855.2809170114874 -113.37669132567942, 838.7809170114874 -144.37669132567942, 827.7809170114874 -144.37669132567942"/>
<rect x="881.7809170114874" y="-116.37669132567942" width="176" height="6" fill="#ff7f11"/>
<path fill="none" stroke="#ffbe0b" stroke-width="10" stroke-linecap="round" d="M 261.0322323859116 262.2086314929627 C 130.5161161929558 262.2086314929627, 52.20644647718232 96, 0 96"/>
<rect x="260.0322323859116" y="257.2086314929627" width="376" height="10" fill="#ffbe0b"/>
<path fill="none" stroke="#ffbe0b" stroke-width="8" stroke-linecap="round" d="M 856.6235479599786 23.607154530756958 C 746.3278901729451 23.607154530756958, 680.150495500725 262.2086314929627, 636.0322323859116 262.2086314929627"/>
<rect x="855.6235479599786" y="19.607154530756958" width="508" height="8" fill="#ffbe0b"/>
<path fill="none" stroke="#ffbe0b" stroke-width="8" stroke-linecap="round" d="M 856.6235479599786 91.60715453075696 C 746.3278901729451 91.60715453075696, 680.150495500725 262.2086314929627, 636.0322323859116 262.2086314929627"/>
<rect x="855.6235479599786" y="87.60715453075696" width="592" height="8" fill="#ffbe0b"/>
<path fill="none" stroke="#ffbe0b" stroke-width="8" stroke-linecap="round" d="M 856.6235479599786 215.60715453075696 C 746.3278901729451 215.60715453075696, 680.150495500725 262.2086314929627, 636.0322323859116 262.2086314929627"/>
<rect x="855.6235479599786" y="211.60715453075696" width="100" height="8" fill="#ffbe0b"/>
<path fill="none" stroke="#ffbe0b" stroke-width="6" stroke-linecap="round" d="M 1016.6235479599786 138.60715453075696 C 986.1235479599786 138.60715453075696, 967.8235479599787 215.60715453075696, 955.6235479599786 215.60715453075696"/>
<rect x="1015.6235479599786" y="135.60715453075696" width="72" height="6" fill="#ffbe0b"/>
<path fill="none" stroke="#ffbe0b" stroke-width="6" stroke-linecap="round" d="M 1016.6235479599786 174.60715453075696 C 986.1235479599786 174.60715453075696, 967.8235479599787 215.60715453075696, 955.6235479599786 215.60715453075696"/>
<rect x="1015.6235479599786" y="171.60715453075696" width="72" height="6" fill="#ffbe0b"/>
<path fill="none" stroke="#ffbe0b" stroke-width="6" stroke-linecap="round" d="M 1016.6235479599786 210.60715453075696 C 986.1235479599786 210.60715453075696, 967.8235479599787 215.60715453075696, 955.6235479599786 215.60715453075696"/>
<rect x="1015.6235479599786" y="207.60715453075696" width="72" height="6" fill="#ffbe0b"/>
<path fill="none" stroke="#ffbe0b" stroke-width="6" stroke-linecap="round" d="M 1016.6235479599786 246.60715453075696 C 986.1235479599786 246.60715453075696, 967.8235479599787 215.60715453075696, 955.6235479599786 215.60715453075696"/>
<rect x="1015.6235479599786" y="243.60715453075696" width="72" height="6" fill="#ffbe0b"/>
<path fill="none" stroke="#ffbe0b" stroke-width="6" stroke-linecap="round" d="M 1016.6235479599786 282.60715453075693 C 986.1235479599786 282.60715453075693, 967.8235479599787 215.60715453075696, 955.6235479599786 215.60715453075696"/>
<rect x="1015.6235479599786" y="279.60715453075693" width="72" height="6" fill="#ffbe0b"/>
<path fill="none" stroke="#ffbe0b" stroke-width="8" stroke-linecap="round" d="M 856.6235479599786 373.60715453075693 C 746.3278901729451 373.60715453075693, 680.150495500725 262.20863149296264, 636.0322323859116 262.20863149296264"/>
<rect x="855.6235479599786" y="369.60715453075693" width="106" height="8" fill="#ffbe0b"/>
<path fill="none" stroke="#ffbe0b" stroke-width="6" stroke-linecap="round" d="M 1016.6235479599786 325.60715453075693 C 989.1235479599786 325.60715453075693, 972.6235479599786 373.60715453075693, 961.6235479599786 373.60715453075693"/>
<rect x="1015.6235479599786" y="322.60715453075693" width="286" height="6" fill="#ffbe0b"/>
<path fill="none" stroke="#ffbe0b" stroke-width="6" stroke-linecap="round" d="M 1016.6235479599786 375.60715453075693 C 989.1235479599786 375.60715453075693, 972.6235479599786 373.60715453075693, 961.6235479599786 373.60715453075693"/>
<rect x="1015.6235479599786" y="372.60715453075693" width="233" height="6" fill="#ffbe0b"/>
<path fill="none" stroke="#ffbe0b" stroke-width="6" stroke-linecap="round" d="M 1016.6235479599786 418.60715453075693 C 989.1235479599786 418.60715453075693, 972.6235479599786 373.60715453075693, 961.6235479599786 373.60715453075693"/>
<rect x="1015.6235479599786" y="415.60715453075693" width="150" height="6" fill="#ffbe0b"/>
<path fill="none" stroke="#8ac926" stroke-width="10" stroke-linecap="round" d="M 216.09640787322837 789.4907675595692 C 108.04820393661419 789.4907675595692, 43.21928157464568 96, 0 96"/>
<rect x="215.09640787322837" y="784.4907675595692" width="376" height="10" fill="#8ac926"/>
<path fill="none" stroke="#8ac926" stroke-width="8" stroke-linecap="round" d="M 811.6877234472954 559.8892905973635 C 701.3920656602619 559.8892905973635, 635.2146709880418 789.4907675595691, 591.0964078732284 789.4907675595691"/>
<rect x="810.6877234472954" y="555.8892905973635" width="699" height="8" fill="#8ac926"/>
<path fill="none" stroke="#8ac926" stroke-width="8" stroke-linecap="round" d="M 811.6877234472954 627.8892905973635 C 701.3920656602619 627.8892905973635, 635.2146709880418 789.4907675595691, 591.0964078732284 789.4907675595691"/>
<rect x="810.6877234472954" y="623.8892905973635" width="407" height="8" fill="#8ac926"/>
<path fill="none" stroke="#8ac926" stroke-width="8" stroke-linecap="round" d="M 811.6877234472954 742.8892905973635 C 701.3920656602619 742.8892905973635, 635.2146709880418 789.4907675595691, 591.0964078732284 789.4907675595691"/>
<rect x="810.6877234472954" y="738.8892905973635" width="100" height="8" fill="#8ac926"/>
<path fill="none" stroke="#8ac926" stroke-width="6" stroke-linecap="round" d="M 971.6877234472954 665.8892905973635 C 941.1877234472954 665.8892905973635, 922.8877234472955 742.8892905973635, 910.6877234472954 742.8892905973635"/>
<rect x="970.6877234472954" y="662.8892905973635" width="72" height="6" fill="#8ac926"/>
<path fill="none" stroke="#8ac926" stroke-width="6" stroke-linecap="round" d="M 971.6877234472954 701.8892905973635 C 941.1877234472954 701.8892905973635, 922.8877234472955 742.8892905973635, 910.6877234472954 742.8892905973635"/>
<rect x="970.6877234472954" y="698.8892905973635" width="72" height="6" fill="#8ac926"/>
<path fill="none" stroke="#8ac926" stroke-width="6" stroke-linecap="round" d="M 971.6877234472954 737.8892905973635 C 941.1877234472954 737.8892905973635, 922.8877234472955 742.8892905973635, 910.6877234472954 742.8892905973635"/>
<rect x="970.6877234472954" y="734.8892905973635" width="72" height="6" fill="#8ac926"/>
<path fill="none" stroke="#8ac926" stroke-width="6" stroke-linecap="round" d="M 971.6877234472954 773.8892905973635 C 941.1877234472954 773.8892905973635, 922.8877234472955 742.8892905973635, 910.6877234472954 742.8892905973635"/>
<rect x="970.6877234472954" y="770.8892905973635" width="72" height="6" fill="#8ac926"/>
<path fill="none" stroke="#8ac926" stroke-width="6" stroke-linecap="round" d="M 971.6877234472954 809.8892905973635 C 941.1877234472954 809.8892905973635, 922.8877234472955 742.8892905973635, 910.6877234472954 742.8892905973635"/>
<rect x="970.6877234472954" y="806.8892905973635" width="72" height="6" fill="#8ac926"/>
<path fill="none" stroke="#8ac926" stroke-width="8" stroke-linecap="round" d="M 811.6877234472954 900.8892905973635 C 701.3920656602619 900.8892905973635, 635.2146709880418 789.4907675595691, 591.0964078732284 789.4907675595691"/>
<rect x="810.6877234472954" y="896.8892905973635" width="106" height="8" fill="#8ac926"/>
<path fill="none" stroke="#8ac926" stroke-width="6" stroke-linecap="round" d="M 971.6877234472954 852.8892905973635 C 944.1877234472954 852.8892905973635, 927.6877234472954 900.8892905973635, 916.6877234472954 900.8892905973635"/>
<rect x="970.6877234472954" y="849.8892905973635" width="234" height="6" fill="#8ac926"/>
<path fill="none" stroke="#8ac926" stroke-width="6" stroke-linecap="round" d="M 971.6877234472954 902.8892905973635 C 944.1877234472954 902.8892905973635, 927.6877234472954 900.8892905973635, 916.6877234472954 900.8892905973635"/>
<rect x="970.6877234472954" y="899.8892905973635" width="209" height="6" fill="#8ac926"/>
<path fill="none" stroke="#8ac926" stroke-width="6" stroke-linecap="round" d="M 971.6877234472954 945.8892905973635 C 944.1877234472954 945.8892905973635, 927.6877234472954 900.8892905973635, 916.6877234472954 900.8892905973635"/>
<rect x="970.6877234472954" y="942.8892905973635" width="150" height="6" fill="#8ac926"/>
<path fill="none" stroke="#2ec4b6" stroke-width="10" stroke-linecap="round" d="M -198.57074986383714 797.8848334966261 C -98.78537493191857 797.8848334966261, -38.91414997276743 96, 1 96"/>
<rect x="-574.5707498638371" y="792.8848334966261" width="376" height="10" fill="#2ec4b6"/>
<path fill="none" stroke="#2ec4b6" stroke-width="8" stroke-linecap="round" d="M -587.901901131143 545.9053361073939 C -580.73632549749 545.9053361073939, -576.4369801172983 797.8848334966261, -573.5707498638371 797.8848334966261"/>
<rect x="-1080.901901131143" y="541.9053361073939" width="493" height="8" fill="#2ec4b6"/>
<path fill="none" stroke="#2ec4b6" stroke-width="8" stroke-linecap="round" d="M -595.5646681716248 613.908930330272 C -584.567709017731 613.908930330272, -577.9695335253948 797.8848334966261, -573.5707498638372 797.8848334966261"/>
<rect x="-1180.5646681716248" y="609.908930330272" width="585" height="8" fill="#2ec4b6"/>
<path fill="none" stroke="#2ec4b6" stroke-width="8" stroke-linecap="round" d="M -608.9694359530624 669.796854325746 C -591.2700929084498 669.796854325746, -580.6504870816823 797.8848334966261, -573.5707498638371 797.8848334966261"/>
<rect x="-1029.9694359530624" y="665.796854325746" width="421" height="8" fill="#2ec4b6"/>
<path fill="none" stroke="#2ec4b6" stroke-width="8" stroke-linecap="round" d="M -593.901901131143 787.9053361073939 C -583.73632549749 787.9053361073939, -577.6369801172983 797.8848334966261, -573.5707498638371 797.8848334966261"/>
<rect x="-693.901901131143" y="783.9053361073939" width="100" height="8" fill="#2ec4b6"/>
<path fill="none" stroke="#2ec4b6" stroke-width="6" stroke-linecap="round" d="M -760.901901131143 710.9053361073939 C -726.901901131143 710.9053361073939, -706.501901131143 787.9053361073939, -692.901901131143 787.9053361073939"/>
<rect x="-832.901901131143" y="707.9053361073939" width="72" height="6" fill="#2ec4b6"/>
<path fill="none" stroke="#2ec4b6" stroke-width="6" stroke-linecap="round" d="M -760.901901131143 746.9053361073939 C -726.901901131143 746.9053361073939, -706.501901131143 787.9053361073939, -692.901901131143 787.9053361073939"/>
<rect x="-832.901901131143" y="743.9053361073939" width="72" height="6" fill="#2ec4b6"/>
<path fill="none" stroke="#2ec4b6" stroke-width="6" stroke-linecap="round" d="M -760.901901131143 782.9053361073939 C -726.901901131143 782.9053361073939, -706.501901131143 787.9053361073939, -692.901901131143 787.9053361073939"/>
<rect x="-832.901901131143" y="779.9053361073939" width="72" height="6" fill="#2ec4b6"/>
<path fill="none" stroke="#2ec4b6" stroke-width="6" stroke-linecap="round" d="M -760.901901131143 818.9053361073939 C -726.901901131143 818.9053361073939, -706.501901131143 787.9053361073939, -692.901901131143 787.9053361073939"/>
<rect x="-832.901901131143" y="815.9053361073939" width="72" height="6" fill="#2ec4b6"/>
<path fill="none" stroke="#2ec4b6" stroke-width="6" stroke-linecap="round" d="M -760.901901131143 854.9053361073939 C -726.901901131143 854.9053361073939, -706.501901131143 787.9053361073939, -692.901901131143 787.9053361073939"/>
<rect x="-832.901901131143" y="851.9053361073939" width="72" height="6" fill="#2ec4b6"/>
<path fill="none" stroke="#2ec4b6" stroke-width="8" stroke-linecap="round" d="M -596.901901131143 938.9053361073939 C -585.23632549749 938.9053361073939, -578.2369801172983 797.8848334966261, -573.5707498638371 797.8848334966261"/>
<rect x="-702.901901131143" y="934.9053361073939" width="106" height="8" fill="#2ec4b6"/>
<path fill="none" stroke="#2ec4b6" stroke-width="6" stroke-linecap="round" d="M -798.901901131143 897.9053361073939 C -750.401901131143 897.9053361073939, -721.3019011311429 938.9053361073939, -701.901901131143 938.9053361073939"/>
<rect x="-1006.901901131143" y="894.9053361073939" width="208" height="6" fill="#2ec4b6"/>
<path fill="none" stroke="#2ec4b6" stroke-width="6" stroke-linecap="round" d="M -768.901901131143 940.9053361073939 C -735.401901131143 940.9053361073939, -715.3019011311429 938.9053361073939, -701.901901131143 938.9053361073939"/>
<rect x="-907.901901131143" y="937.9053361073939" width="139" height="6" fill="#2ec4b6"/>
<path fill="none" stroke="#2ec4b6" stroke-width="6" stroke-linecap="round" d="M -794.901901131143 976.9053361073939 C -748.401901131143 976.9053361073939, -720.501901131143 938.9053361073939, -701.901901131143 938.9053361073939"/>
<rect x="-907.901901131143" y="973.9053361073939" width="113" height="6" fill="#2ec4b6"/>
<path fill="none" stroke="#00bbf9" stroke-width="10" stroke-linecap="round" d="M -299.50303506475836 262.3679349341039 C -149.25151753237918 262.3679349341039, -59.100607012951684 96, 1 96"/>
<rect x="-484.50303506475836" y="257.3679349341039" width="185" height="10" fill="#00bbf9"/>
<path fill="none" stroke="#00bbf9" stroke-width="8" stroke-linecap="round" d="M -600.9846326605029 7.875778196180249 C -542.2438338626307 7.875778196180249, -506.99935458390735 262.3679349341039, -483.5030350647585 262.3679349341039"/>
<rect x="-1168.984632660503" y="3.8757781961802493" width="568" height="8" fill="#00bbf9"/>
<path fill="none" stroke="#00bbf9" stroke-width="8" stroke-linecap="round" d="M -622.9846326605029 75.87577819618025 C -553.2438338626307 75.87577819618025, -511.3993545839074 262.3679349341039, -483.5030350647585 262.3679349341039"/>
<rect x="-1150.984632660503" y="71.87577819618025" width="528" height="8" fill="#00bbf9"/>
<path fill="none" stroke="#00bbf9" stroke-width="8" stroke-linecap="round" d="M -641.9846326605028 134.87577819618025 C -562.7438338626306 134.87577819618025, -515.1993545839073 262.3679349341039, -483.50303506475836 262.3679349341039"/>
<rect x="-934.9846326605028" y="130.87577819618025" width="293" height="8" fill="#00bbf9"/>
<path fill="none" stroke="#00bbf9" stroke-width="8" stroke-linecap="round" d="M -636.9846326605028 267.87577819618025 C -560.2438338626306 267.87577819618025, -514.1993545839073 262.3679349341039, -483.50303506475836 262.3679349341039"/>
<rect x="-736.9846326605028" y="263.87577819618025" width="100" height="8" fill="#00bbf9"/>
<path fill="none" stroke="#00bbf9" stroke-width="6" stroke-linecap="round" d="M -803.9846326605028 172.87577819618025 C -769.9846326605028 172.87577819618025, -749.5846326605028 267.87577819618025, -735.9846326605028 267.87577819618025"/>
<rect x="-875.9846326605028" y="169.87577819618025" width="72" height="6" fill="#00bbf9"/>
<path fill="none" stroke="#00bbf9" stroke-width="6" stroke-linecap="round" d="M -803.9846326605028 208.87577819618025 C -769.9846326605028 208.87577819618025, -749.5846326605028 267.87577819618025, -735.9846326605028 267.87577819618025"/>
<rect x="-875.9846326605028" y="205.87577819618025" width="72" height="6" fill="#00bbf9"/>
<path fill="none" stroke="#00bbf9" stroke-width="6" stroke-linecap="round" d="M -803.9846326605028 244.87577819618025 C -769.9846326605028 244.87577819618025, -749.5846326605028 267.87577819618025, -735.9846326605028 267.87577819618025"/>
<rect x="-875.9846326605028" y="241.87577819618025" width="72" height="6" fill="#00bbf9"/>
<path fill="none" stroke="#00bbf9" stroke-width="6" stroke-linecap="round" d="M -803.9846326605028 280.87577819618025 C -769.9846326605028 280.87577819618025, -749.5846326605028 267.87577819618025, -735.9846326605028 267.87577819618025"/>
<rect x="-875.9846326605028" y="277.87577819618025" width="72" height="6" fill="#00bbf9"/>
<path fill="none" stroke="#00bbf9" stroke-width="6" stroke-linecap="round" d="M -803.9846326605028 316.87577819618025 C -769.9846326605028 316.87577819618025, -749.5846326605028 267.87577819618025, -735.9846326605028 267.87577819618025"/>
<rect x="-875.9846326605028" y="313.87577819618025" width="72" height="6" fill="#00bbf9"/>
<path fill="none" stroke="#00bbf9" stroke-width="6" stroke-linecap="round" d="M -806.9846326605028 352.87577819618025 C -771.4846326605028 352.87577819618025, -750.1846326605029 267.87577819618025, -735.9846326605028 267.87577819618025"/>
<rect x="-878.9846326605028" y="349.87577819618025" width="72" height="6" fill="#00bbf9"/>
<path fill="none" stroke="#00bbf9" stroke-width="8" stroke-linecap="round" d="M -639.9846326605028 429.87577819618025 C -561.7438338626306 429.87577819618025, -514.7993545839073 262.3679349341039, -483.50303506475836 262.3679349341039"/>
<rect x="-745.9846326605028" y="425.87577819618025" width="106" height="8" fill="#00bbf9"/>
<path fill="none" stroke="#00bbf9" stroke-width="6" stroke-linecap="round" d="M -811.9846326605028 388.87577819618025 C -778.4846326605028 388.87577819618025, -758.3846326605028 429.87577819618025, -744.9846326605028 429.87577819618025"/>
<rect x="-950.9846326605028" y="385.87577819618025" width="139" height="6" fill="#00bbf9"/>
<path fill="none" stroke="#00bbf9" stroke-width="6" stroke-linecap="round" d="M -835.9846326605028 424.87577819618025 C -790.4846326605028 424.87577819618025, -763.1846326605029 429.87577819618025, -744.9846326605028 429.87577819618025"/>
<rect x="-1004.9846326605028" y="421.87577819618025" width="169" height="6" fill="#00bbf9"/>
<path fill="none" stroke="#00bbf9" stroke-width="6" stroke-linecap="round" d="M -828.9846326605028 460.87577819618025 C -786.9846326605028 460.87577819618025, -761.7846326605028 429.87577819618025, -744.9846326605028 429.87577819618025"/>
<rect x="-986.9846326605028" y="457.87577819618025" width="158" height="6" fill="#00bbf9"/>
<path fill="none" stroke="#3a86ff" stroke-width="10" stroke-linecap="round" d="M -274.00705629963693 -259.5101382445579 C -136.50352814981846 -259.5101382445579, -54.00141125992738 96, 1 96"/>
<rect x="-650.0070562996369" y="-264.5101382445579" width="376" height="10" fill="#3a86ff"/>
<path fill="none" stroke="#3a86ff" stroke-width="8" stroke-linecap="round" d="M -806.4886538953815 -485.00229498248154 C -727.7478550975093 -485.00229498248154, -680.5033758187859 -259.5101382445579, -649.007056299637 -259.5101382445579"/>
<rect x="-1217.4886538953815" y="-489.00229498248154" width="411" height="8" fill="#3a86ff"/>
<path fill="none" stroke="#3a86ff" stroke-width="8" stroke-linecap="round" d="M -780.4886538953815 -426.00229498248154 C -714.7478550975093 -426.00229498248154, -675.303375818786 -259.5101382445579, -649.007056299637 -259.5101382445579"/>
<rect x="-1334.4886538953815" y="-430.00229498248154" width="554" height="8" fill="#3a86ff"/>
<path fill="none" stroke="#3a86ff" stroke-width="8" stroke-linecap="round" d="M -807.4886538953815 -367.00229498248154 C -728.2478550975093 -367.00229498248154, -680.703375818786 -259.5101382445579, -649.007056299637 -259.5101382445579"/>
<rect x="-1181.4886538953815" y="-371.00229498248154" width="374" height="8" fill="#3a86ff"/>
<path fill="none" stroke="#3a86ff" stroke-width="8" stroke-linecap="round" d="M -802.4886538953814 -270.00229498248154 C -725.7478550975092 -270.00229498248154, -679.7033758187858 -259.5101382445579, -649.0070562996369 -259.5101382445579"/>
<rect x="-902.4886538953814" y="-274.00229498248154" width="100" height="8" fill="#3a86ff"/>
<path fill="none" stroke="#3a86ff" stroke-width="6" stroke-linecap="round" d="M -969.4886538953815 -329.00229498248154 C -935.4886538953815 -329.00229498248154, -915.0886538953815 -270.00229498248154, -901.4886538953815 -270.00229498248154"/>
<rect x="-1041.4886538953815" y="-332.00229498248154" width="72" height="6" fill="#3a86ff"/>
<path fill="none" stroke="#3a86ff" stroke-width="6" stroke-linecap="round" d="M -969.4886538953815 -293.00229498248154 C -935.4886538953815 -293.00229498248154, -915.0886538953815 -270.00229498248154, -901.4886538953815 -270.00229498248154"/>
<rect x="-1041.4886538953815" y="-296.00229498248154" width="72" height="6" fill="#3a86ff"/>
<path fill="none" stroke="#3a86ff" stroke-width="6" stroke-linecap="round" d="M -972.4886538953815 -257.00229498248154 C -936.9886538953815 -257.00229498248154, -915.6886538953815 -270.00229498248154, -901.4886538953815 -270.00229498248154"/>
<rect x="-1044.4886538953815" y="-260.00229498248154" width="72" height="6" fill="#3a86ff"/>
<path fill="none" stroke="#3a86ff" stroke-width="6" stroke-linecap="round" d="M -969.4886538953815 -221.00229498248154 C -935.4886538953815 -221.00229498248154, -915.0886538953815 -270.00229498248154, -901.4886538953815 -270.00229498248154"/>
<rect x="-1041.4886538953815" y="-224.00229498248154" width="72" height="6" fill="#3a86ff"/>
<path fill="none" stroke="#3a86ff" stroke-width="8" stroke-linecap="round" d="M -805.4886538953814 -137.00229498248154 C -727.2478550975092 -137.00229498248154, -680.3033758187859 -259.5101382445579, -649.0070562996369 -259.5101382445579"/>
<rect x="-911.4886538953814" y="-141.00229498248154" width="106" height="8" fill="#3a86ff"/>
<path fill="none" stroke="#3a86ff" stroke-width="6" stroke-linecap="round" d="M -973.4886538953815 -185.00229498248154 C -941.9886538953815 -185.00229498248154, -923.0886538953815 -137.00229498248154, -910.4886538953815 -137.00229498248154"/>
<rect x="-1152.4886538953815" y="-188.00229498248154" width="179" height="6" fill="#3a86ff"/>
<path fill="none" stroke="#3a86ff" stroke-width="6" stroke-linecap="round" d="M -1009.4886538953815 -149.00229498248154 C -959.9886538953815 -149.00229498248154, -930.2886538953815 -137.00229498248154, -910.4886538953815 -137.00229498248154"/>
<rect x="-1152.4886538953815" y="-152.00229498248154" width="143" height="6" fill="#3a86ff"/>
<path fill="none" stroke="#3a86ff" stroke-width="6" stroke-linecap="round" d="M -1001.4886538953815 -106.00229498248154 C -955.9886538953815 -106.00229498248154, -928.6886538953815 -137.00229498248154, -910.4886538953815 -137.00229498248154"/>
<rect x="-1224.4886538953815" y="-109.00229498248154" width="223" height="6" fill="#3a86ff"/>
<path fill="none" stroke="#8338ec" stroke-width="10" stroke-linecap="round" d="M -180.69208684851066 -672.9174503177337 C -89.84604342425533 -672.9174503177337, -35.33841736970214 96, 1 96"/>
<rect x="-354.69208684851066" y="-677.9174503177337" width="174" height="10" fill="#8338ec"/>
<path fill="none" stroke="#8338ec" stroke-width="8" stroke-linecap="round" d="M -497.17368444425506 -839.4096070556574 C -425.43288564638283 -839.4096070556574, -382.3884063676595 -672.9174503177337, -353.6920868485106 -672.9174503177337"/>
<rect x="-1228.173684444255" y="-843.4096070556574" width="731" height="8" fill="#8338ec"/>
<path fill="none" stroke="#8338ec" stroke-width="8" stroke-linecap="round" d="M -490.17368444425506 -771.4096070556574 C -421.93288564638283 -771.4096070556574, -380.9884063676595 -672.9174503177337, -353.6920868485106 -672.9174503177337"/>
<rect x="-886.1736844442551" y="-775.4096070556574" width="396" height="8" fill="#8338ec"/>
<path fill="none" stroke="#8338ec" stroke-width="8" stroke-linecap="round" d="M -507.17368444425506 -692.4096070556574 C -430.43288564638283 -692.4096070556574, -384.3884063676595 -672.9174503177337, -353.6920868485106 -672.9174503177337"/>
<rect x="-607.1736844442551" y="-696.4096070556574" width="100" height="8" fill="#8338ec"/>
<path fill="none" stroke="#8338ec" stroke-width="6" stroke-linecap="round" d="M -674.1736844442551 -733.4096070556574 C -640.1736844442551 -733.4096070556574, -619.7736844442551 -692.4096070556574, -606.1736844442551 -692.4096070556574"/>
<rect x="-746.1736844442551" y="-736.4096070556574" width="72" height="6" fill="#8338ec"/>
<path fill="none" stroke="#8338ec" stroke-width="6" stroke-linecap="round" d="M -674.1736844442551 -697.4096070556574 C -640.1736844442551 -697.4096070556574, -619.7736844442551 -692.4096070556574, -606.1736844442551 -692.4096070556574"/>
<rect x="-746.1736844442551" y="-700.4096070556574" width="72" height="6" fill="#8338ec"/>
<path fill="none" stroke="#8338ec" stroke-width="6" stroke-linecap="round" d="M -674.1736844442551 -661.4096070556574 C -640.1736844442551 -661.4096070556574, -619.7736844442551 -692.4096070556574, -606.1736844442551 -692.4096070556574"/>
<rect x="-746.1736844442551" y="-664.4096070556574" width="72" height="6" fill="#8338ec"/>
<path fill="none" stroke="#8338ec" stroke-width="8" stroke-linecap="round" d="M -510.17368444425506 -584.4096070556574 C -431.93288564638283 -584.4096070556574, -384.9884063676595 -672.9174503177337, -353.6920868485106 -672.9174503177337"/>
<rect x="-616.1736844442551" y="-588.4096070556574" width="106" height="8" fill="#8338ec"/>
<path fill="none" stroke="#8338ec" stroke-width="6" stroke-linecap="round" d="M -682.1736844442551 -625.4096070556574 C -648.6736844442551 -625.4096070556574, -628.573684444255 -584.4096070556574, -615.1736844442551 -584.4096070556574"/>
<rect x="-821.1736844442551" y="-628.4096070556574" width="139" height="6" fill="#8338ec"/>
<path fill="none" stroke="#8338ec" stroke-width="6" stroke-linecap="round" d="M -692.1736844442551 -589.4096070556574 C -653.6736844442551 -589.4096070556574, -630.573684444255 -584.4096070556574, -615.1736844442551 -584.4096070556574"/>
<rect x="-794.1736844442551" y="-592.4096070556574" width="102" height="6" fill="#8338ec"/>
<path fill="none" stroke="#8338ec" stroke-width="6" stroke-linecap="round" d="M -697.1736844442551 -553.4096070556574 C -656.1736844442551 -553.4096070556574, -631.573684444255 -584.4096070556574, -615.1736844442551 -584.4096070556574"/>
<rect x="-857.1736844442551" y="-556.4096070556574" width="160" height="6" fill="#8338ec"/>
<rect x="-246" y="16" width="492" height="90" rx="10" ry="10" fill="#ffffff" stroke="none" stroke-width="0"/>
<text x="0" y="52" fill="#000000" font-family="sans-serif" font-size="40" font-style="normal" font-weight="bold" text-anchor="middle">
<tspan x="0" y="52">Main 8 Types of </tspan>
<tspan x="0" y="92">Programming Languages</tspan>
</text>
<rect x="205.81512463166464" y="-755.1594995367351" width="182" height="72" rx="10" ry="10" fill="#ffffff" stroke="none" stroke-width="0"/>
<text x="296.8151246316646" y="-726.3594995367351" fill="#000000" font-family="sans-serif" font-size="31" font-style="normal" font-weight="bold" text-anchor="middle">
<tspan x="296.8151246316646" y="-726.3594995367351">🤖 Machine</tspan>
<tspan x="296.8151246316646" y="-695.3594995367351"> Languages</tspan>
</text>
<rect x="666.4064402057317" y="-906.7609764989409" width="763" height="31" rx="10" ry="10" fill="#ffffff" stroke="none" stroke-width="0"/>
<text x="1047.9064402057315" y="-885.9609764989409" fill="#000000" font-family="sans-serif" font-size="21" font-style="normal" font-weight="normal" text-anchor="middle">💾 Binary code: only language directly executed by computers without translation</text>
<rect x="666.4064402057317" y="-829.7609764989409" width="505" height="31" rx="10" ry="10" fill="#ffffff" stroke="none" stroke-width="0"/>
<text x="918.9064402057317" y="-808.9609764989409" fill="#000000" font-family="sans-serif" font-size="21" font-style="normal" font-weight="normal" text-anchor="middle">🔢 Written as zeros and ones (off/on electrical states)</text>
<rect x="666.4064402057317" y="-741.7609764989409" width="108" height="31" rx="10" ry="10" fill="#ffffff" stroke="none" stroke-width="0"/>
<text x="720.4064402057317" y="-720.9609764989409" fill="#000000" font-family="sans-serif" font-size="21" font-style="normal" font-weight="normal" text-anchor="middle">Examples:</text>
<rect x="826.4064402057317" y="-777.7609764989409" width="80" height="27" rx="10" ry="10" fill="#ffffff" stroke="none" stroke-width="0"/>
<text x="866.4064402057317" y="-760.1609764989408" fill="#000000" font-family="sans-serif" font-size="17" font-style="normal" font-weight="normal" text-anchor="middle">ARM</text>
<rect x="826.4064402057317" y="-741.7609764989409" width="80" height="27" rx="10" ry="10" fill="#ffffff" stroke="none" stroke-width="0"/>
<text x="866.4064402057317" y="-724.1609764989408" fill="#000000" font-family="sans-serif" font-size="17" font-style="normal" font-weight="normal" text-anchor="middle">x86</text>
<rect x="826.4064402057317" y="-705.7609764989409" width="80" height="27" rx="10" ry="10" fill="#ffffff" stroke="none" stroke-width="0"/>
<text x="866.4064402057317" y="-688.1609764989408" fill="#000000" font-family="sans-serif" font-size="17" font-style="normal" font-weight="normal" text-anchor="middle">RISC-V</text>
<rect x="666.4064402057317" y="-662.7609764989409" width="114" height="31" rx="10" ry="10" fill="#ffffff" stroke="none" stroke-width="0"/>
<text x="723.4064402057317" y="-641.9609764989409" fill="#000000" font-family="sans-serif" font-size="21" font-style="normal" font-weight="normal" text-anchor="middle">Use cases:</text>
<rect x="826.4064402057317" y="-662.7609764989409" width="241" height="27" rx="10" ry="10" fill="#ffffff" stroke="none" stroke-width="0"/>
<text x="946.9064402057317" y="-645.1609764989408" fill="#000000" font-family="sans-serif" font-size="17" font-style="normal" font-weight="normal" text-anchor="middle">Controlling CPU and hardware</text>
<rect x="666.4064402057317" y="-603.7609764989409" width="542" height="31" rx="10" ry="10" fill="#ffffff" stroke="none" stroke-width="0"/>
<text x="937.4064402057317" y="-582.9609764989409" fill="#000000" font-family="sans-serif" font-size="21" font-style="normal" font-weight="normal" text-anchor="middle">⚠️ Drawback: Nearly impossible for humans to read/write</text>
<rect x="248.18960143742038" y="-334.7752143634737" width="204" height="72" rx="10" ry="10" fill="#ffffff" stroke="none" stroke-width="0"/>
<text x="350.1896014374204" y="-305.9752143634737" fill="#000000" font-family="sans-serif" font-size="31" font-style="normal" font-weight="bold" text-anchor="middle">
<tspan x="350.1896014374204" y="-305.9752143634737">⚙️ Assembly </tspan>
<tspan x="350.1896014374204" y="-274.9752143634737">Languages</tspan>
</text>
<rect x="717.7809170114874" y="-515.3766913256794" width="649" height="31" rx="10" ry="10" fill="#ffffff" stroke="none" stroke-width="0"/>
<text x="1042.2809170114874" y="-494.5766913256794" fill="#000000" font-family="sans-serif" font-size="21" font-style="normal" font-weight="normal" text-anchor="middle">👤 Human-readable version of machine code using mnemonic codes</text>
<rect x="717.7809170114874" y="-438.3766913256794" width="663" height="31" rx="10" ry="10" fill="#ffffff" stroke="none" stroke-width="0"/>
<text x="1049.2809170114874" y="-417.5766913256794" fill="#000000" font-family="sans-serif" font-size="21" font-style="normal" font-weight="normal" text-anchor="middle">📉 Low-level: offers more control and speed than high-level languages</text>
<rect x="717.7809170114874" y="-370.3766913256794" width="402" height="31" rx="10" ry="10" fill="#ffffff" stroke="none" stroke-width="0"/>
<text x="918.7809170114874" y="-349.5766913256794" fill="#000000" font-family="sans-serif" font-size="21" font-style="normal" font-weight="normal" text-anchor="middle">🔧 Requires detailed hardware knowledge</text>
<rect x="717.7809170114874" y="-291.3766913256794" width="108" height="31" rx="10" ry="10" fill="#ffffff" stroke="none" stroke-width="0"/>
<text x="771.7809170114874" y="-270.5766913256794" fill="#000000" font-family="sans-serif" font-size="21" font-style="normal" font-weight="normal" text-anchor="middle">Examples:</text>
<rect x="877.7809170114874" y="-327.3766913256794" width="82" height="27" rx="10" ry="10" fill="#ffffff" stroke="none" stroke-width="0"/>
<text x="918.7809170114874" y="-309.7766913256794" fill="#000000" font-family="sans-serif" font-size="17" font-style="normal" font-weight="normal" text-anchor="middle">ARM A64</text>
<rect x="877.7809170114874" y="-291.3766913256794" width="80" height="27" rx="10" ry="10" fill="#ffffff" stroke="none" stroke-width="0"/>
<text x="917.7809170114874" y="-273.7766913256794" fill="#000000" font-family="sans-serif" font-size="17" font-style="normal" font-weight="normal" text-anchor="middle">x86</text>
<rect x="877.7809170114874" y="-255.37669132567942" width="80" height="27" rx="10" ry="10" fill="#ffffff" stroke="none" stroke-width="0"/>
<text x="917.7809170114874" y="-237.77669132567942" fill="#000000" font-family="sans-serif" font-size="17" font-style="normal" font-weight="normal" text-anchor="middle">MIPS</text>
<rect x="717.7809170114874" y="-183.37669132567942" width="114" height="31" rx="10" ry="10" fill="#ffffff" stroke="none" stroke-width="0"/>
<text x="774.7809170114874" y="-162.5766913256794" fill="#000000" font-family="sans-serif" font-size="21" font-style="normal" font-weight="normal" text-anchor="middle">Use cases:</text>
<rect x="877.7809170114874" y="-219.37669132567942" width="180" height="27" rx="10" ry="10" fill="#ffffff" stroke="none" stroke-width="0"/>
<text x="967.7809170114874" y="-201.77669132567942" fill="#000000" font-family="sans-serif" font-size="17" font-style="normal" font-weight="normal" text-anchor="middle">Systems programming</text>
<rect x="877.7809170114874" y="-183.37669132567942" width="159" height="27" rx="10" ry="10" fill="#ffffff" stroke="none" stroke-width="0"/>
<text x="957.2809170114874" y="-165.77669132567942" fill="#000000" font-family="sans-serif" font-size="17" font-style="normal" font-weight="normal" text-anchor="middle">Embedded systems</text>
<rect x="877.7809170114874" y="-147.37669132567942" width="184" height="27" rx="10" ry="10" fill="#ffffff" stroke="none" stroke-width="0"/>
<text x="969.7809170114874" y="-129.77669132567942" fill="#000000" font-family="sans-serif" font-size="17" font-style="normal" font-weight="normal" text-anchor="middle">Low-level development</text>
<rect x="256.0322323859116" y="181.20863149296267" width="384" height="72" rx="10" ry="10" fill="#ffffff" stroke="none" stroke-width="0"/>
<text x="448.0322323859116" y="210.00863149296268" fill="#000000" font-family="sans-serif" font-size="31" font-style="normal" font-weight="bold" text-anchor="middle">
<tspan x="448.0322323859116" y="210.00863149296268">📋 Procedural </tspan>
<tspan x="448.0322323859116" y="241.00863149296268">Programming Languages</tspan>
</text>
<rect x="851.6235479599786" y="-15.392845469243042" width="516" height="31" rx="10" ry="10" fill="#ffffff" stroke="none" stroke-width="0"/>
<text x="1109.6235479599786" y="5.407154530756959" fill="#000000" font-family="sans-serif" font-size="21" font-style="normal" font-weight="normal" text-anchor="middle">➡️ Step-by-step instructions with reusable code blocks</text>
<rect x="851.6235479599786" y="52.60715453075696" width="600" height="31" rx="10" ry="10" fill="#ffffff" stroke="none" stroke-width="0"/>
<text x="1151.6235479599786" y="73.40715453075696" fill="#000000" font-family="sans-serif" font-size="21" font-style="normal" font-weight="normal" text-anchor="middle">📦 Used for medium-sized applications and embedded systems</text>
<rect x="851.6235479599786" y="176.60715453075696" width="108" height="31" rx="10" ry="10" fill="#ffffff" stroke="none" stroke-width="0"/>
<text x="905.6235479599786" y="197.40715453075697" fill="#000000" font-family="sans-serif" font-size="21" font-style="normal" font-weight="normal" text-anchor="middle">Examples:</text>
<rect x="1011.6235479599786" y="104.60715453075696" width="80" height="27" rx="10" ry="10" fill="#ffffff" stroke="none" stroke-width="0"/>
<text x="1051.6235479599786" y="122.20715453075695" fill="#000000" font-family="sans-serif" font-size="17" font-style="normal" font-weight="normal" text-anchor="middle">C</text>
<rect x="1011.6235479599786" y="140.60715453075696" width="80" height="27" rx="10" ry="10" fill="#ffffff" stroke="none" stroke-width="0"/>
<text x="1051.6235479599786" y="158.20715453075695" fill="#000000" font-family="sans-serif" font-size="17" font-style="normal" font-weight="normal" text-anchor="middle">C++</text>
<rect x="1011.6235479599786" y="176.60715453075696" width="80" height="27" rx="10" ry="10" fill="#ffffff" stroke="none" stroke-width="0"/>
<text x="1051.6235479599786" y="194.20715453075695" fill="#000000" font-family="sans-serif" font-size="17" font-style="normal" font-weight="normal" text-anchor="middle">Java</text>
<rect x="1011.6235479599786" y="212.60715453075696" width="80" height="27" rx="10" ry="10" fill="#ffffff" stroke="none" stroke-width="0"/>
<text x="1051.6235479599786" y="230.20715453075695" fill="#000000" font-family="sans-serif" font-size="17" font-style="normal" font-weight="normal" text-anchor="middle">Pascal</text>
<rect x="1011.6235479599786" y="248.60715453075696" width="80" height="27" rx="10" ry="10" fill="#ffffff" stroke="none" stroke-width="0"/>
<text x="1051.6235479599786" y="266.20715453075695" fill="#000000" font-family="sans-serif" font-size="17" font-style="normal" font-weight="normal" text-anchor="middle">BASIC</text>
<rect x="851.6235479599786" y="334.60715453075693" width="114" height="31" rx="10" ry="10" fill="#ffffff" stroke="none" stroke-width="0"/>
<text x="908.6235479599786" y="355.40715453075694" fill="#000000" font-family="sans-serif" font-size="21" font-style="normal" font-weight="normal" text-anchor="middle">Use cases:</text>
<rect x="1011.6235479599786" y="291.60715453075693" width="294" height="27" rx="10" ry="10" fill="#ffffff" stroke="none" stroke-width="0"/>
<text x="1158.6235479599786" y="309.20715453075695" fill="#000000" font-family="sans-serif" font-size="17" font-style="normal" font-weight="normal" text-anchor="middle">Operating systems and device drivers</text>
<rect x="1011.6235479599786" y="341.60715453075693" width="241" height="27" rx="10" ry="10" fill="#ffffff" stroke="none" stroke-width="0"/>
<text x="1132.1235479599786" y="359.20715453075695" fill="#000000" font-family="sans-serif" font-size="17" font-style="normal" font-weight="normal" text-anchor="middle">High-performance applications</text>
<rect x="1011.6235479599786" y="384.60715453075693" width="158" height="27" rx="10" ry="10" fill="#ffffff" stroke="none" stroke-width="0"/>
<text x="1090.6235479599786" y="402.20715453075695" fill="#000000" font-family="sans-serif" font-size="17" font-style="normal" font-weight="normal" text-anchor="middle">Game development</text>
<rect x="211.09640787322837" y="708.4907675595692" width="384" height="72" rx="10" ry="10" fill="#ffffff" stroke="none" stroke-width="0"/>
<text x="403.0964078732284" y="737.2907675595692" fill="#000000" font-family="sans-serif" font-size="31" font-style="normal" font-weight="bold" text-anchor="middle">
<tspan x="403.0964078732284" y="737.2907675595692">📐 Functional </tspan>
<tspan x="403.0964078732284" y="768.2907675595692">Programming Languages</tspan>
</text>
<rect x="806.6877234472954" y="520.8892905973635" width="707" height="31" rx="10" ry="10" fill="#ffffff" stroke="none" stroke-width="0"/>
<text x="1160.1877234472954" y="541.6892905973634" fill="#000000" font-family="sans-serif" font-size="21" font-style="normal" font-weight="normal" text-anchor="middle">🔒 Functions treat tasks like math problems without changing values/states</text>
<rect x="806.6877234472954" y="588.8892905973635" width="415" height="31" rx="10" ry="10" fill="#ffffff" stroke="none" stroke-width="0"/>
<text x="1014.1877234472954" y="609.6892905973634" fill="#000000" font-family="sans-serif" font-size="21" font-style="normal" font-weight="normal" text-anchor="middle">✨ Uses pure functions and immutable data</text>
<rect x="806.6877234472954" y="703.8892905973635" width="108" height="31" rx="10" ry="10" fill="#ffffff" stroke="none" stroke-width="0"/>
<text x="860.6877234472954" y="724.6892905973634" fill="#000000" font-family="sans-serif" font-size="21" font-style="normal" font-weight="normal" text-anchor="middle">Examples:</text>
<rect x="966.6877234472954" y="631.8892905973635" width="80" height="27" rx="10" ry="10" fill="#ffffff" stroke="none" stroke-width="0"/>
<text x="1006.6877234472954" y="649.4892905973635" fill="#000000" font-family="sans-serif" font-size="17" font-style="normal" font-weight="normal" text-anchor="middle">Scala</text>
<rect x="966.6877234472954" y="667.8892905973635" width="80" height="27" rx="10" ry="10" fill="#ffffff" stroke="none" stroke-width="0"/>
<text x="1006.6877234472954" y="685.4892905973635" fill="#000000" font-family="sans-serif" font-size="17" font-style="normal" font-weight="normal" text-anchor="middle">Erlang</text>
<rect x="966.6877234472954" y="703.8892905973635" width="80" height="27" rx="10" ry="10" fill="#ffffff" stroke="none" stroke-width="0"/>
<text x="1006.6877234472954" y="721.4892905973635" fill="#000000" font-family="sans-serif" font-size="17" font-style="normal" font-weight="normal" text-anchor="middle">Haskell</text>
<rect x="966.6877234472954" y="739.8892905973635" width="80" height="27" rx="10" ry="10" fill="#ffffff" stroke="none" stroke-width="0"/>
<text x="1006.6877234472954" y="757.4892905973635" fill="#000000" font-family="sans-serif" font-size="17" font-style="normal" font-weight="normal" text-anchor="middle">Elixir</text>
<rect x="966.6877234472954" y="775.8892905973635" width="80" height="27" rx="10" ry="10" fill="#ffffff" stroke="none" stroke-width="0"/>
<text x="1006.6877234472954" y="793.4892905973635" fill="#000000" font-family="sans-serif" font-size="17" font-style="normal" font-weight="normal" text-anchor="middle">F#</text>
<rect x="806.6877234472954" y="861.8892905973635" width="114" height="31" rx="10" ry="10" fill="#ffffff" stroke="none" stroke-width="0"/>
<text x="863.6877234472954" y="882.6892905973634" fill="#000000" font-family="sans-serif" font-size="21" font-style="normal" font-weight="normal" text-anchor="middle">Use cases:</text>
<rect x="966.6877234472954" y="818.8892905973635" width="242" height="27" rx="10" ry="10" fill="#ffffff" stroke="none" stroke-width="0"/>
<text x="1087.6877234472954" y="836.4892905973635" fill="#000000" font-family="sans-serif" font-size="17" font-style="normal" font-weight="normal" text-anchor="middle">Data science and manipulation</text>
<rect x="966.6877234472954" y="868.8892905973635" width="217" height="27" rx="10" ry="10" fill="#ffffff" stroke="none" stroke-width="0"/>
<text x="1075.1877234472954" y="886.4892905973635" fill="#000000" font-family="sans-serif" font-size="17" font-style="normal" font-weight="normal" text-anchor="middle">Mathematical computations</text>
<rect x="966.6877234472954" y="911.8892905973635" width="158" height="27" rx="10" ry="10" fill="#ffffff" stroke="none" stroke-width="0"/>
<text x="1045.6877234472954" y="929.4892905973635" fill="#000000" font-family="sans-serif" font-size="17" font-style="normal" font-weight="normal" text-anchor="middle">Distributed systems</text>
<rect x="-578.5707498638371" y="716.8848334966261" width="384" height="72" rx="10" ry="10" fill="#ffffff" stroke="none" stroke-width="0"/>
<text x="-386.57074986383714" y="745.6848334966261" fill="#000000" font-family="sans-serif" font-size="31" font-style="normal" font-weight="bold" text-anchor="middle">
<tspan x="-386.57074986383714" y="745.6848334966261">🧩 Object-Oriented </tspan>
<tspan x="-386.57074986383714" y="776.6848334966261">Programming Languages</tspan>
</text>
<rect x="-1084.901901131143" y="506.90533610739385" width="501" height="31" rx="10" ry="10" fill="#ffffff" stroke="none" stroke-width="0"/>
<text x="-834.401901131143" y="527.7053361073938" fill="#000000" font-family="sans-serif" font-size="21" font-style="normal" font-weight="normal" text-anchor="middle">🎯 Everything as objects with attributes and methods</text>
<rect x="-1184.5646681716248" y="574.908930330272" width="593" height="31" rx="10" ry="10" fill="#ffffff" stroke="none" stroke-width="0"/>
<text x="-888.0646681716248" y="595.708930330272" fill="#000000" font-family="sans-serif" font-size="21" font-style="normal" font-weight="normal" text-anchor="middle">🔗 Uses inheritance, encapsulation, polymorphism, abstraction</text>
<rect x="-1033.9694359530624" y="630.796854325746" width="429" height="31" rx="10" ry="10" fill="#ffffff" stroke="none" stroke-width="0"/>
<text x="-819.4694359530624" y="651.596854325746" fill="#000000" font-family="sans-serif" font-size="21" font-style="normal" font-weight="normal" text-anchor="middle">📚 Modular, reusable, and maintainable code</text>
<rect x="-697.901901131143" y="748.9053361073939" width="108" height="31" rx="10" ry="10" fill="#ffffff" stroke="none" stroke-width="0"/>
<text x="-643.901901131143" y="769.7053361073938" fill="#000000" font-family="sans-serif" font-size="21" font-style="normal" font-weight="normal" text-anchor="middle">Examples:</text>
<rect x="-836.901901131143" y="676.9053361073939" width="80" height="27" rx="10" ry="10" fill="#ffffff" stroke="none" stroke-width="0"/>
<text x="-796.901901131143" y="694.5053361073939" fill="#000000" font-family="sans-serif" font-size="17" font-style="normal" font-weight="normal" text-anchor="middle">Java</text>
<rect x="-836.901901131143" y="712.9053361073939" width="80" height="27" rx="10" ry="10" fill="#ffffff" stroke="none" stroke-width="0"/>
<text x="-796.901901131143" y="730.5053361073939" fill="#000000" font-family="sans-serif" font-size="17" font-style="normal" font-weight="normal" text-anchor="middle">Python</text>
<rect x="-836.901901131143" y="748.9053361073939" width="80" height="27" rx="10" ry="10" fill="#ffffff" stroke="none" stroke-width="0"/>
<text x="-796.901901131143" y="766.5053361073939" fill="#000000" font-family="sans-serif" font-size="17" font-style="normal" font-weight="normal" text-anchor="middle">PHP</text>
<rect x="-836.901901131143" y="784.9053361073939" width="80" height="27" rx="10" ry="10" fill="#ffffff" stroke="none" stroke-width="0"/>
<text x="-796.901901131143" y="802.5053361073939" fill="#000000" font-family="sans-serif" font-size="17" font-style="normal" font-weight="normal" text-anchor="middle">C++</text>
<rect x="-836.901901131143" y="820.9053361073939" width="80" height="27" rx="10" ry="10" fill="#ffffff" stroke="none" stroke-width="0"/>
<text x="-796.901901131143" y="838.5053361073939" fill="#000000" font-family="sans-serif" font-size="17" font-style="normal" font-weight="normal" text-anchor="middle">Ruby</text>
<rect x="-706.901901131143" y="899.9053361073939" width="114" height="31" rx="10" ry="10" fill="#ffffff" stroke="none" stroke-width="0"/>
<text x="-649.901901131143" y="920.7053361073938" fill="#000000" font-family="sans-serif" font-size="21" font-style="normal" font-weight="normal" text-anchor="middle">Use cases:</text>
<rect x="-1010.901901131143" y="863.9053361073939" width="216" height="27" rx="10" ry="10" fill="#ffffff" stroke="none" stroke-width="0"/>
<text x="-902.901901131143" y="881.5053361073939" fill="#000000" font-family="sans-serif" font-size="17" font-style="normal" font-weight="normal" text-anchor="middle">Large/complex applications</text>
<rect x="-911.901901131143" y="906.9053361073939" width="147" height="27" rx="10" ry="10" fill="#ffffff" stroke="none" stroke-width="0"/>
<text x="-838.401901131143" y="924.5053361073939" fill="#000000" font-family="sans-serif" font-size="17" font-style="normal" font-weight="normal" text-anchor="middle">Web development</text>
<rect x="-911.901901131143" y="942.9053361073939" width="121" height="27" rx="10" ry="10" fill="#ffffff" stroke="none" stroke-width="0"/>
<text x="-851.401901131143" y="960.5053361073939" fill="#000000" font-family="sans-serif" font-size="17" font-style="normal" font-weight="normal" text-anchor="middle">AI applications</text>
<rect x="-488.50303506475836" y="181.3679349341039" width="193" height="72" rx="10" ry="10" fill="#ffffff" stroke="none" stroke-width="0"/>
<text x="-392.00303506475836" y="210.16793493410393" fill="#000000" font-family="sans-serif" font-size="31" font-style="normal" font-weight="bold" text-anchor="middle">
<tspan x="-392.00303506475836" y="210.16793493410393">📝 Scripting </tspan>
<tspan x="-392.00303506475836" y="241.16793493410393">Languages</tspan>
</text>
<rect x="-1172.984632660503" y="-31.12422180381975" width="576" height="31" rx="10" ry="10" fill="#ffffff" stroke="none" stroke-width="0"/>
<text x="-884.9846326605029" y="-10.32422180381975" fill="#000000" font-family="sans-serif" font-size="21" font-style="normal" font-weight="normal" text-anchor="middle">🤖 Automates repetitive tasks and manages dynamic content</text>
<rect x="-1154.984632660503" y="36.87577819618025" width="536" height="31" rx="10" ry="10" fill="#ffffff" stroke="none" stroke-width="0"/>
<text x="-886.9846326605029" y="57.67577819618025" fill="#000000" font-family="sans-serif" font-size="21" font-style="normal" font-weight="normal" text-anchor="middle">⚡ Interpreted rather than compiled (faster development)</text>
<rect x="-938.9846326605028" y="95.87577819618026" width="301" height="31" rx="10" ry="10" fill="#ffffff" stroke="none" stroke-width="0"/>
<text x="-788.4846326605028" y="116.67577819618026" fill="#000000" font-family="sans-serif" font-size="21" font-style="normal" font-weight="normal" text-anchor="middle">📖 Simple syntax, easy to learn</text>
<rect x="-740.9846326605028" y="228.87577819618025" width="108" height="31" rx="10" ry="10" fill="#ffffff" stroke="none" stroke-width="0"/>
<text x="-686.9846326605028" y="249.67577819618026" fill="#000000" font-family="sans-serif" font-size="21" font-style="normal" font-weight="normal" text-anchor="middle">Examples:</text>
<rect x="-879.9846326605028" y="138.87577819618025" width="80" height="27" rx="10" ry="10" fill="#ffffff" stroke="none" stroke-width="0"/>
<text x="-839.9846326605028" y="156.47577819618024" fill="#000000" font-family="sans-serif" font-size="17" font-style="normal" font-weight="normal" text-anchor="middle">PHP</text>
<rect x="-879.9846326605028" y="174.87577819618025" width="80" height="27" rx="10" ry="10" fill="#ffffff" stroke="none" stroke-width="0"/>
<text x="-839.9846326605028" y="192.47577819618024" fill="#000000" font-family="sans-serif" font-size="17" font-style="normal" font-weight="normal" text-anchor="middle">Ruby</text>
<rect x="-879.9846326605028" y="210.87577819618025" width="80" height="27" rx="10" ry="10" fill="#ffffff" stroke="none" stroke-width="0"/>
<text x="-839.9846326605028" y="228.47577819618024" fill="#000000" font-family="sans-serif" font-size="17" font-style="normal" font-weight="normal" text-anchor="middle">Python</text>
<rect x="-879.9846326605028" y="246.87577819618025" width="80" height="27" rx="10" ry="10" fill="#ffffff" stroke="none" stroke-width="0"/>
<text x="-839.9846326605028" y="264.4757781961803" fill="#000000" font-family="sans-serif" font-size="17" font-style="normal" font-weight="normal" text-anchor="middle">bash</text>
<rect x="-879.9846326605028" y="282.87577819618025" width="80" height="27" rx="10" ry="10" fill="#ffffff" stroke="none" stroke-width="0"/>
<text x="-839.9846326605028" y="300.4757781961803" fill="#000000" font-family="sans-serif" font-size="17" font-style="normal" font-weight="normal" text-anchor="middle">Perl</text>
<rect x="-882.9846326605028" y="318.87577819618025" width="80" height="27" rx="10" ry="10" fill="#ffffff" stroke="none" stroke-width="0"/>
<text x="-842.9846326605028" y="336.4757781961803" fill="#000000" font-family="sans-serif" font-size="17" font-style="normal" font-weight="normal" text-anchor="middle">Node.js</text>
<rect x="-749.9846326605028" y="390.87577819618025" width="114" height="31" rx="10" ry="10" fill="#ffffff" stroke="none" stroke-width="0"/>
<text x="-692.9846326605028" y="411.67577819618026" fill="#000000" font-family="sans-serif" font-size="21" font-style="normal" font-weight="normal" text-anchor="middle">Use cases:</text>
<rect x="-954.9846326605028" y="354.87577819618025" width="147" height="27" rx="10" ry="10" fill="#ffffff" stroke="none" stroke-width="0"/>
<text x="-881.4846326605028" y="372.4757781961803" fill="#000000" font-family="sans-serif" font-size="17" font-style="normal" font-weight="normal" text-anchor="middle">Web development</text>
<rect x="-1008.9846326605028" y="390.87577819618025" width="177" height="27" rx="10" ry="10" fill="#ffffff" stroke="none" stroke-width="0"/>
<text x="-920.4846326605028" y="408.4757781961803" fill="#000000" font-family="sans-serif" font-size="17" font-style="normal" font-weight="normal" text-anchor="middle">System administration</text>
<rect x="-990.9846326605028" y="426.87577819618025" width="166" height="27" rx="10" ry="10" fill="#ffffff" stroke="none" stroke-width="0"/>
<text x="-907.9846326605028" y="444.4757781961803" fill="#000000" font-family="sans-serif" font-size="17" font-style="normal" font-weight="normal" text-anchor="middle">Software automation</text>
<rect x="-654.0070562996369" y="-340.5101382445579" width="384" height="72" rx="10" ry="10" fill="#ffffff" stroke="none" stroke-width="0"/>
<text x="-462.00705629963693" y="-311.71013824455787" fill="#000000" font-family="sans-serif" font-size="31" font-style="normal" font-weight="bold" text-anchor="middle">
<tspan x="-462.00705629963693" y="-311.71013824455787">🧠 Logic </tspan>
<tspan x="-462.00705629963693" y="-280.71013824455787">Programming Languages</tspan>
</text>
<rect x="-1221.4886538953815" y="-524.0022949824815" width="419" height="31" rx="10" ry="10" fill="#ffffff" stroke="none" stroke-width="0"/>
<text x="-1011.9886538953815" y="-503.20229498248153" fill="#000000" font-family="sans-serif" font-size="21" font-style="normal" font-weight="normal" text-anchor="middle">✓ Based on formal logic with facts and rules</text>
<rect x="-1338.4886538953815" y="-465.00229498248154" width="562" height="31" rx="10" ry="10" fill="#ffffff" stroke="none" stroke-width="0"/>
<text x="-1057.4886538953815" y="-444.20229498248153" fill="#000000" font-family="sans-serif" font-size="21" font-style="normal" font-weight="normal" text-anchor="middle">💡 Computers solve computations through logical inference</text>
<rect x="-1185.4886538953815" y="-406.00229498248154" width="382" height="31" rx="10" ry="10" fill="#ffffff" stroke="none" stroke-width="0"/>
<text x="-994.4886538953815" y="-385.20229498248153" fill="#000000" font-family="sans-serif" font-size="21" font-style="normal" font-weight="normal" text-anchor="middle">🎯 No need for step-by-step instructions</text>
<rect x="-906.4886538953814" y="-309.00229498248154" width="108" height="31" rx="10" ry="10" fill="#ffffff" stroke="none" stroke-width="0"/>
<text x="-852.4886538953814" y="-288.20229498248153" fill="#000000" font-family="sans-serif" font-size="21" font-style="normal" font-weight="normal" text-anchor="middle">Examples:</text>
<rect x="-1045.4886538953815" y="-363.00229498248154" width="80" height="27" rx="10" ry="10" fill="#ffffff" stroke="none" stroke-width="0"/>
<text x="-1005.4886538953815" y="-345.4022949824815" fill="#000000" font-family="sans-serif" font-size="17" font-style="normal" font-weight="normal" text-anchor="middle">Prolog</text>
<rect x="-1045.4886538953815" y="-327.00229498248154" width="80" height="27" rx="10" ry="10" fill="#ffffff" stroke="none" stroke-width="0"/>
<text x="-1005.4886538953815" y="-309.4022949824815" fill="#000000" font-family="sans-serif" font-size="17" font-style="normal" font-weight="normal" text-anchor="middle">Absys</text>
<rect x="-1048.4886538953815" y="-291.00229498248154" width="80" height="27" rx="10" ry="10" fill="#ffffff" stroke="none" stroke-width="0"/>
<text x="-1008.4886538953815" y="-273.4022949824815" fill="#000000" font-family="sans-serif" font-size="17" font-style="normal" font-weight="normal" text-anchor="middle">Datalog</text>
<rect x="-1045.4886538953815" y="-255.00229498248154" width="80" height="27" rx="10" ry="10" fill="#ffffff" stroke="none" stroke-width="0"/>
<text x="-1005.4886538953815" y="-237.40229498248155" fill="#000000" font-family="sans-serif" font-size="17" font-style="normal" font-weight="normal" text-anchor="middle">Alma-0</text>
<rect x="-915.4886538953814" y="-176.00229498248154" width="114" height="31" rx="10" ry="10" fill="#ffffff" stroke="none" stroke-width="0"/>
<text x="-858.4886538953814" y="-155.20229498248153" fill="#000000" font-family="sans-serif" font-size="21" font-style="normal" font-weight="normal" text-anchor="middle">Use cases:</text>
<rect x="-1156.4886538953815" y="-219.00229498248154" width="187" height="27" rx="10" ry="10" fill="#ffffff" stroke="none" stroke-width="0"/>
<text x="-1062.9886538953815" y="-201.40229498248155" fill="#000000" font-family="sans-serif" font-size="17" font-style="normal" font-weight="normal" text-anchor="middle">Database management</text>
<rect x="-1156.4886538953815" y="-183.00229498248154" width="151" height="27" rx="10" ry="10" fill="#ffffff" stroke="none" stroke-width="0"/>
<text x="-1080.9886538953815" y="-165.40229498248155" fill="#000000" font-family="sans-serif" font-size="17" font-style="normal" font-weight="normal" text-anchor="middle">Predictive analysis</text>
<rect x="-1228.4886538953815" y="-140.00229498248154" width="231" height="27" rx="10" ry="10" fill="#ffffff" stroke="none" stroke-width="0"/>
<text x="-1112.9886538953815" y="-122.40229498248155" fill="#000000" font-family="sans-serif" font-size="17" font-style="normal" font-weight="normal" text-anchor="middle">AI/machine learning and NLP</text>
<rect x="-358.69208684851066" y="-753.9174503177337" width="182" height="72" rx="10" ry="10" fill="#ffffff" stroke="none" stroke-width="0"/>
<text x="-267.69208684851066" y="-725.1174503177338" fill="#000000" font-family="sans-serif" font-size="31" font-style="normal" font-weight="bold" text-anchor="middle">
<tspan x="-267.69208684851066" y="-725.1174503177338">🏷️ Markup</tspan>
<tspan x="-267.69208684851066" y="-694.1174503177338"> Languages</tspan>
</text>
<rect x="-1232.173684444255" y="-878.4096070556574" width="739" height="31" rx="10" ry="10" fill="#ffffff" stroke="none" stroke-width="0"/>
<text x="-862.6736844442551" y="-857.6096070556574" fill="#000000" font-family="sans-serif" font-size="21" font-style="normal" font-weight="normal" text-anchor="middle">📄 Text-encoding systems for structure, presentation, and content organization</text>
<rect x="-890.1736844442551" y="-810.4096070556574" width="404" height="31" rx="10" ry="10" fill="#ffffff" stroke="none" stroke-width="0"/>
<text x="-688.1736844442551" y="-789.6096070556574" fill="#000000" font-family="sans-serif" font-size="21" font-style="normal" font-weight="normal" text-anchor="middle">ℹ️ technically not programming languages</text>
<rect x="-611.1736844442551" y="-731.4096070556574" width="108" height="31" rx="10" ry="10" fill="#ffffff" stroke="none" stroke-width="0"/>
<text x="-557.1736844442551" y="-710.6096070556574" fill="#000000" font-family="sans-serif" font-size="21" font-style="normal" font-weight="normal" text-anchor="middle">Examples:</text>
<rect x="-750.1736844442551" y="-767.4096070556574" width="80" height="27" rx="10" ry="10" fill="#ffffff" stroke="none" stroke-width="0"/>
<text x="-710.1736844442551" y="-749.8096070556574" fill="#000000" font-family="sans-serif" font-size="17" font-style="normal" font-weight="normal" text-anchor="middle">HTML</text>
<rect x="-750.1736844442551" y="-731.4096070556574" width="80" height="27" rx="10" ry="10" fill="#ffffff" stroke="none" stroke-width="0"/>
<text x="-710.1736844442551" y="-713.8096070556574" fill="#000000" font-family="sans-serif" font-size="17" font-style="normal" font-weight="normal" text-anchor="middle">CSS</text>
<rect x="-750.1736844442551" y="-695.4096070556574" width="80" height="27" rx="10" ry="10" fill="#ffffff" stroke="none" stroke-width="0"/>
<text x="-710.1736844442551" y="-677.8096070556574" fill="#000000" font-family="sans-serif" font-size="17" font-style="normal" font-weight="normal" text-anchor="middle">XML</text>
<rect x="-620.1736844442551" y="-623.4096070556574" width="114" height="31" rx="10" ry="10" fill="#ffffff" stroke="none" stroke-width="0"/>
<text x="-563.1736844442551" y="-602.6096070556574" fill="#000000" font-family="sans-serif" font-size="21" font-style="normal" font-weight="normal" text-anchor="middle">Use cases:</text>
<rect x="-825.1736844442551" y="-659.4096070556574" width="147" height="27" rx="10" ry="10" fill="#ffffff" stroke="none" stroke-width="0"/>
<text x="-751.6736844442551" y="-641.8096070556574" fill="#000000" font-family="sans-serif" font-size="17" font-style="normal" font-weight="normal" text-anchor="middle">Web development</text>
<rect x="-798.1736844442551" y="-623.4096070556574" width="110" height="27" rx="10" ry="10" fill="#ffffff" stroke="none" stroke-width="0"/>
<text x="-743.1736844442551" y="-605.8096070556574" fill="#000000" font-family="sans-serif" font-size="17" font-style="normal" font-weight="normal" text-anchor="middle">UI/UX design</text>
<rect x="-861.1736844442551" y="-587.4096070556574" width="168" height="27" rx="10" ry="10" fill="#ffffff" stroke="none" stroke-width="0"/>
<text x="-777.1736844442551" y="-569.8096070556574" fill="#000000" font-family="sans-serif" font-size="17" font-style="normal" font-weight="normal" text-anchor="middle">Document formatting</text>
</g>
</svg>