<?xml version="1.0" encoding="UTF-8"?>
<svg xmlns="http://www.w3.org/2000/svg" xmlns:xlink="http://www.w3.org/1999/xlink" width="100%" viewBox="0 0 2114.1051924639423 1222.53343826616">
<rect x="0" y="0" width="2114.1051924639423" height="1222.53343826616" fill="#ffffff"/>
<g transform="translate(985.0442847543576 595.5359548899082)">
<path fill="none" stroke="#e63946" stroke-width="10" stroke-linecap="round" d="M 162.68384651475586 -218.5238044669336 C 81.34192325737793 -218.5238044669336, 32.53676930295117 70, 0 70"/>
<rect x="161.68384651475586" y="-223.5238044669336" width="343" height="10" fill="#e63946"/>
<path fill="none" stroke="#e63946" stroke-width="8" stroke-linecap="round" d="M 537.0609077095847 -416.04212066375675 C 520.8723771121703 -416.04212066375675, 511.1592587537216 -218.5238044669336, 504.6838465147558 -218.5238044669336"/>
<rect x="536.0609077095847" y="-420.04212066375675" width="118" height="8" fill="#e63946"/>
<path fill="none" stroke="#e63946" stroke-width="6" stroke-linecap="round" d="M 697.0609077095847 -472.04212066375675 C 675.5609077095847 -472.04212066375675, 662.6609077095848 -416.04212066375675, 654.0609077095847 -416.04212066375675"/>
<rect x="696.0609077095847" y="-475.04212066375675" width="262" height="6" fill="#e63946"/>
<path fill="none" stroke="#e63946" stroke-width="6" stroke-linecap="round" d="M 697.0609077095847 -422.04212066375675 C 675.5609077095847 -422.04212066375675, 662.6609077095848 -416.04212066375675, 654.0609077095847 -416.04212066375675"/>
<rect x="696.0609077095847" y="-425.04212066375675" width="166" height="6" fill="#e63946"/>
<path fill="none" stroke="#e63946" stroke-width="6" stroke-linecap="round" d="M 697.0609077095847 -372.04212066375675 C 675.5609077095847 -372.04212066375675, 662.6609077095848 -416.04212066375675, 654.0609077095847 -416.04212066375675"/>
<rect x="696.0609077095847" y="-375.04212066375675" width="91" height="6" fill="#e63946"/>
<path fill="none" stroke="#e63946" stroke-width="4" stroke-linecap="round" d="M 857.0609077095847 -373.04212066375675 C 822.0609077095847 -373.04212066375675, 801.0609077095847 -372.04212066375675, 787.0609077095847 -372.04212066375675"/>
<rect x="856.0609077095847" y="-375.04212066375675" width="248" height="4" fill="#e63946"/>
<path fill="none" stroke="#e63946" stroke-width="8" stroke-linecap="round" d="M 530.2160171129416 -131.70997981218468 C 517.4499318138487 -131.70997981218468, 509.790280634393 -218.5238044669336, 504.6838465147559 -218.5238044669336"/>
<rect x="529.2160171129416" y="-135.70997981218468" width="122" height="8" fill="#e63946"/>
<path fill="none" stroke="#e63946" stroke-width="6" stroke-linecap="round" d="M 690.2160171129416 -234.70997981218466 C 670.7160171129416 -234.70997981218466, 659.0160171129415 -131.70997981218466, 651.2160171129416 -131.70997981218466"/>
<rect x="689.2160171129416" y="-237.70997981218466" width="192" height="6" fill="#e63946"/>
<path fill="none" stroke="#e63946" stroke-width="6" stroke-linecap="round" d="M 690.2160171129416 -184.70997981218468 C 670.7160171129416 -184.70997981218468, 659.0160171129415 -131.70997981218468, 651.2160171129416 -131.70997981218468"/>
<rect x="689.2160171129416" y="-187.70997981218468" width="259" height="6" fill="#e63946"/>
<path fill="none" stroke="#e63946" stroke-width="6" stroke-linecap="round" d="M 690.2160171129416 -87.70997981218468 C 670.7160171129416 -87.70997981218468, 659.0160171129415 -131.70997981218468, 651.2160171129416 -131.70997981218468"/>
<rect x="689.2160171129416" y="-90.70997981218468" width="91" height="6" fill="#e63946"/>
<path fill="none" stroke="#e63946" stroke-width="4" stroke-linecap="round" d="M 850.2160171129416 -142.70997981218468 C 815.2160171129416 -142.70997981218468, 794.2160171129416 -87.70997981218468, 780.2160171129416 -87.70997981218468"/>
<rect x="849.2160171129416" y="-144.70997981218468" width="72" height="4" fill="#e63946"/>
<path fill="none" stroke="#e63946" stroke-width="4" stroke-linecap="round" d="M 850.2160171129416 -106.70997981218468 C 815.2160171129416 -106.70997981218468, 794.2160171129416 -87.70997981218468, 780.2160171129416 -87.70997981218468"/>
<rect x="849.2160171129416" y="-108.70997981218468" width="72" height="4" fill="#e63946"/>
<path fill="none" stroke="#e63946" stroke-width="4" stroke-linecap="round" d="M 850.2160171129416 -70.70997981218468 C 815.2160171129416 -70.70997981218468, 794.2160171129416 -87.70997981218468, 780.2160171129416 -87.70997981218468"/>
<rect x="849.2160171129416" y="-72.70997981218468" width="72" height="4" fill="#e63946"/>
<path fill="none" stroke="#e63946" stroke-width="4" stroke-linecap="round" d="M 850.2160171129416 -34.709979812184685 C 815.2160171129416 -34.709979812184685, 794.2160171129416 -87.70997981218468, 780.2160171129416 -87.70997981218468"/>
<rect x="849.2160171129416" y="-36.709979812184685" width="91" height="4" fill="#e63946"/>
<path fill="none" stroke="#ff7f11" stroke-width="10" stroke-linecap="round" d="M 209.1233327956499 292.91912660037224 C 104.56166639782495 292.91912660037224, 41.82466655912998 70, 0 70"/>
<rect x="208.1233327956499" y="287.91912660037224" width="338" height="10" fill="#ff7f11"/>
<path fill="none" stroke="#ff7f11" stroke-width="8" stroke-linecap="round" d="M 511.51423295983705 113.36672549765981 C 511.51423295983705 199.14292604901604, 542.12333279565 256.2086463798298, 542.12333279565 292.91912660037224"/>
<rect x="507.51423295983705" y="109.36672549765981" width="118" height="8" fill="#ff7f11"/>
<path fill="none" stroke="#ff7f11" stroke-width="6" stroke-linecap="round" d="M 668.514232959837 10.366725497659814 C 647.014232959837 10.366725497659814, 634.1142329598371 113.36672549765981, 625.514232959837 113.36672549765981"/>
<rect x="667.514232959837" y="7.366725497659814" width="320" height="6" fill="#ff7f11"/>
<path fill="none" stroke="#ff7f11" stroke-width="6" stroke-linecap="round" d="M 668.514232959837 60.366725497659814 C 647.014232959837 60.366725497659814, 634.1142329598371 113.36672549765981, 625.514232959837 113.36672549765981"/>
<rect x="667.514232959837" y="57.366725497659814" width="218" height="6" fill="#ff7f11"/>
<path fill="none" stroke="#ff7f11" stroke-width="6" stroke-linecap="round" d="M 668.514232959837 157.36672549765981 C 647.014232959837 157.36672549765981, 634.1142329598371 113.36672549765981, 625.514232959837 113.36672549765981"/>
<rect x="667.514232959837" y="154.36672549765981" width="91" height="6" fill="#ff7f11"/>
<path fill="none" stroke="#ff7f11" stroke-width="4" stroke-linecap="round" d="M 828.514232959837 102.36672549765981 C 793.514232959837 102.36672549765981, 772.514232959837 157.36672549765981, 758.514232959837 157.36672549765981"/>
<rect x="827.514232959837" y="100.36672549765981" width="72" height="4" fill="#ff7f11"/>
<path fill="none" stroke="#ff7f11" stroke-width="4" stroke-linecap="round" d="M 828.514232959837 138.36672549765981 C 793.514232959837 138.36672549765981, 772.514232959837 157.36672549765981, 758.514232959837 157.36672549765981"/>
<rect x="827.514232959837" y="136.36672549765981" width="72" height="4" fill="#ff7f11"/>
<path fill="none" stroke="#ff7f11" stroke-width="4" stroke-linecap="round" d="M 828.514232959837 174.36672549765981 C 793.514232959837 174.36672549765981, 772.514232959837 157.36672549765981, 758.514232959837 157.36672549765981"/>
<rect x="827.514232959837" y="172.36672549765981" width="72" height="4" fill="#ff7f11"/>
<path fill="none" stroke="#ff7f11" stroke-width="4" stroke-linecap="round" d="M 828.514232959837 210.36672549765981 C 793.514232959837 210.36672549765981, 772.514232959837 157.36672549765981, 758.514232959837 157.36672549765981"/>
<rect x="827.514232959837" y="208.36672549765981" width="72" height="4" fill="#ff7f11"/>
<path fill="none" stroke="#ff7f11" stroke-width="8" stroke-linecap="round" d="M 557.5667186063431 365.9354976254831 C 551.8450257009965 365.9354976254831, 548.4120099577885 292.91912660037224, 546.12333279565 292.91912660037224"/>
<rect x="556.566718606343" y="361.9354976254831" width="130" height="8" fill="#ff7f11"/>
<path fill="none" stroke="#ff7f11" stroke-width="6" stroke-linecap="round" d="M 717.566718606343 262.9354976254831 C 702.066718606343 262.9354976254831, 692.766718606343 365.9354976254831, 686.566718606343 365.9354976254831"/>
<rect x="716.566718606343" y="259.9354976254831" width="295" height="6" fill="#ff7f11"/>
<path fill="none" stroke="#ff7f11" stroke-width="6" stroke-linecap="round" d="M 717.566718606343 312.9354976254831 C 702.066718606343 312.9354976254831, 692.766718606343 365.9354976254831, 686.566718606343 365.9354976254831"/>
<rect x="716.566718606343" y="309.9354976254831" width="256" height="6" fill="#ff7f11"/>
<path fill="none" stroke="#ff7f11" stroke-width="6" stroke-linecap="round" d="M 717.566718606343 409.9354976254831 C 702.066718606343 409.9354976254831, 692.766718606343 365.9354976254831, 686.566718606343 365.9354976254831"/>
<rect x="716.566718606343" y="406.9354976254831" width="91" height="6" fill="#ff7f11"/>
<path fill="none" stroke="#ff7f11" stroke-width="4" stroke-linecap="round" d="M 877.5667186063431 354.9354976254831 C 842.5667186063431 354.9354976254831, 821.5667186063431 409.9354976254831, 807.5667186063431 409.9354976254831"/>
<rect x="876.5667186063431" y="352.9354976254831" width="91" height="4" fill="#ff7f11"/>
<path fill="none" stroke="#ff7f11" stroke-width="4" stroke-linecap="round" d="M 877.5667186063431 390.9354976254831 C 842.5667186063431 390.9354976254831, 821.5667186063431 409.9354976254831, 807.5667186063431 409.9354976254831"/>
<rect x="876.5667186063431" y="388.9354976254831" width="72" height="4" fill="#ff7f11"/>
<path fill="none" stroke="#ff7f11" stroke-width="4" stroke-linecap="round" d="M 877.5667186063431 426.9354976254831 C 842.5667186063431 426.9354976254831, 821.5667186063431 409.9354976254831, 807.5667186063431 409.9354976254831"/>
<rect x="876.5667186063431" y="424.9354976254831" width="72" height="4" fill="#ff7f11"/>
<path fill="none" stroke="#ff7f11" stroke-width="4" stroke-linecap="round" d="M 877.5667186063431 462.9354976254831 C 842.5667186063431 462.9354976254831, 821.5667186063431 409.9354976254831, 807.5667186063431 409.9354976254831"/>
<rect x="876.5667186063431" y="460.9354976254831" width="72" height="4" fill="#ff7f11"/>
<path fill="none" stroke="#ff7f11" stroke-width="8" stroke-linecap="round" d="M 483.4578724019107 536.4732550299397 C 483.4578724019107 409.69619081515594, 542.12333279565 337.62995228628574, 542.12333279565 292.91912660037224"/>
<rect x="479.4578724019107" y="532.4732550299397" width="91" height="8" fill="#ff7f11"/>
<path fill="none" stroke="#ff7f11" stroke-width="6" stroke-linecap="round" d="M 640.4578724019107 530.4732550299397 C 605.4578724019107 530.4732550299397, 584.4578724019107 536.4732550299397, 570.4578724019107 536.4732550299397"/>
<rect x="639.4578724019107" y="527.4732550299397" width="91" height="6" fill="#ff7f11"/>
<path fill="none" stroke="#ff7f11" stroke-width="4" stroke-linecap="round" d="M 800.4578724019107 511.47325502993965 C 765.4578724019107 511.47325502993965, 744.4578724019107 530.4732550299397, 730.4578724019107 530.4732550299397"/>
<rect x="799.4578724019107" y="509.47325502993965" width="72" height="4" fill="#ff7f11"/>
<path fill="none" stroke="#ff7f11" stroke-width="4" stroke-linecap="round" d="M 800.4578724019107 547.4732550299397 C 765.4578724019107 547.4732550299397, 744.4578724019107 530.4732550299397, 730.4578724019107 530.4732550299397"/>
<rect x="799.4578724019107" y="545.4732550299397" width="72" height="4" fill="#ff7f11"/>
<path fill="none" stroke="#ffbe0b" stroke-width="10" stroke-linecap="round" d="M 116 427 C 116 242.5, 5 136.6, 5 70"/>
<rect x="-208" y="422" width="329" height="10" fill="#ffbe0b"/>
<path fill="none" stroke="#ffbe0b" stroke-width="8" stroke-linecap="round" d="M -245.0940846371169 302.2221054470548 C -226.04704231855845 302.2221054470548, -214.6188169274234 427, -207.00000000000003 427"/>
<rect x="-365.0940846371169" y="298.2221054470548" width="120" height="8" fill="#ffbe0b"/>
<path fill="none" stroke="#ffbe0b" stroke-width="6" stroke-linecap="round" d="M -479.0940846371169 224.22210544705482 C -421.5940846371169 224.22210544705482, -387.0940846371169 302.2221054470548, -364.0940846371169 302.2221054470548"/>
<rect x="-678.0940846371169" y="221.22210544705482" width="199" height="6" fill="#ffbe0b"/>
<path fill="none" stroke="#ffbe0b" stroke-width="6" stroke-linecap="round" d="M -425.0940846371169 321.2221054470548 C -394.5940846371169 321.2221054470548, -376.2940846371169 302.2221054470548, -364.0940846371169 302.2221054470548"/>
<rect x="-516.0940846371169" y="318.2221054470548" width="91" height="6" fill="#ffbe0b"/>
<path fill="none" stroke="#ffbe0b" stroke-width="4" stroke-linecap="round" d="M -583.0940846371169 266.2221054470548 C -549.0940846371169 266.2221054470548, -528.6940846371169 321.2221054470548, -515.0940846371169 321.2221054470548"/>
<rect x="-655.0940846371169" y="264.2221054470548" width="72" height="4" fill="#ffbe0b"/>
<path fill="none" stroke="#ffbe0b" stroke-width="4" stroke-linecap="round" d="M -583.0940846371169 302.2221054470548 C -549.0940846371169 302.2221054470548, -528.6940846371169 321.2221054470548, -515.0940846371169 321.2221054470548"/>
<rect x="-655.0940846371169" y="300.2221054470548" width="72" height="4" fill="#ffbe0b"/>
<path fill="none" stroke="#ffbe0b" stroke-width="4" stroke-linecap="round" d="M -594.0940846371169 338.2221054470548 C -554.5940846371169 338.2221054470548, -530.8940846371169 321.2221054470548, -515.0940846371169 321.2221054470548"/>
<rect x="-685.0940846371169" y="336.2221054470548" width="91" height="4" fill="#ffbe0b"/>
<path fill="none" stroke="#ffbe0b" stroke-width="4" stroke-linecap="round" d="M -583.0940846371169 374.2221054470548 C -549.0940846371169 374.2221054470548, -528.6940846371169 321.2221054470548, -515.0940846371169 321.2221054470548"/>
<rect x="-655.0940846371169" y="372.2221054470548" width="72" height="4" fill="#ffbe0b"/>
<path fill="none" stroke="#ffbe0b" stroke-width="8" stroke-linecap="round" d="M -255.81555198160385 518.9974833762517 C -231.40777599080192 518.9974833762517, -216.76311039632077 427, -207 427"/>
<rect x="-373.81555198160385" y="514.9974833762517" width="118" height="8" fill="#ffbe0b"/>
<path fill="none" stroke="#ffbe0b" stroke-width="6" stroke-linecap="round" d="M -540.8155519816039 440.99748337625175 C -456.8155519816039 440.99748337625175, -406.4155519816039 518.9974833762517, -372.8155519816039 518.9974833762517"/>
<rect x="-893.8155519816039" y="437.99748337625175" width="353" height="6" fill="#ffbe0b"/>
<path fill="none" stroke="#ffbe0b" stroke-width="6" stroke-linecap="round" d="M -442.8155519816039 546.9974833762517 C -407.8155519816039 546.9974833762517, -386.8155519816039 518.9974833762517, -372.8155519816039 518.9974833762517"/>
<rect x="-533.8155519816039" y="543.9974833762517" width="91" height="6" fill="#ffbe0b"/>
<path fill="none" stroke="#ffbe0b" stroke-width="4" stroke-linecap="round" d="M -600.8155519816039 491.99748337625175 C -566.8155519816039 491.99748337625175, -546.4155519816039 546.9974833762517, -532.8155519816039 546.9974833762517"/>
<rect x="-672.8155519816039" y="489.99748337625175" width="72" height="4" fill="#ffbe0b"/>
<path fill="none" stroke="#ffbe0b" stroke-width="4" stroke-linecap="round" d="M -600.8155519816039 527.9974833762517 C -566.8155519816039 527.9974833762517, -546.4155519816039 546.9974833762517, -532.8155519816039 546.9974833762517"/>
<rect x="-672.8155519816039" y="525.9974833762517" width="72" height="4" fill="#ffbe0b"/>
<path fill="none" stroke="#ffbe0b" stroke-width="4" stroke-linecap="round" d="M -611.8155519816039 563.9974833762517 C -572.3155519816039 563.9974833762517, -548.6155519816039 546.9974833762517, -532.8155519816039 546.9974833762517"/>
<rect x="-702.8155519816039" y="561.9974833762517" width="91" height="4" fill="#ffbe0b"/>
<path fill="none" stroke="#ffbe0b" stroke-width="4" stroke-linecap="round" d="M -600.8155519816039 599.9974833762517 C -566.8155519816039 599.9974833762517, -546.4155519816039 546.9974833762517, -532.8155519816039 546.9974833762517"/>
<rect x="-672.8155519816039" y="597.9974833762517" width="72" height="4" fill="#ffbe0b"/>
<path fill="none" stroke="#8ac926" stroke-width="10" stroke-linecap="round" d="M 10.597152305970894 -169.98939176358996 C 10.597152305970894 -54.99469588179497, 5 21.002121647282024, 5 70.00000000000003"/>
<rect x="-278.4028476940291" y="-174.98939176358996" width="294" height="10" fill="#8ac926"/>
<path fill="none" stroke="#8ac926" stroke-width="8" stroke-linecap="round" d="M -326.5321910051159 -464.5359548899082 C -301.9675193495725 -464.5359548899082, -287.2287163562465 -169.98939176359, -277.4028476940291 -169.98939176359"/>
<rect x="-494.5321910051159" y="-468.5359548899082" width="168" height="8" fill="#8ac926"/>
<path fill="none" stroke="#8ac926" stroke-width="6" stroke-linecap="round" d="M -579.5321910051159 -542.5359548899082 C -536.5321910051159 -542.5359548899082, -510.7321910051159 -464.5359548899082, -493.5321910051159 -464.5359548899082"/>
<rect x="-870.5321910051159" y="-545.5359548899082" width="291" height="6" fill="#8ac926"/>
<path fill="none" stroke="#8ac926" stroke-width="6" stroke-linecap="round" d="M -558.1152792980332 -447.3360740163372 C -525.8237351515745 -447.3360740163372, -506.44880866369937 -464.53595488990817, -493.5321910051159 -464.53595488990817"/>
<rect x="-649.1152792980332" y="-450.3360740163372" width="91" height="6" fill="#8ac926"/>
<path fill="none" stroke="#8ac926" stroke-width="4" stroke-linecap="round" d="M -719.1152792980332 -502.3360740163372 C -683.6152792980332 -502.3360740163372, -662.3152792980333 -447.3360740163372, -648.1152792980332 -447.3360740163372"/>
<rect x="-791.1152792980332" y="-504.3360740163372" width="72" height="4" fill="#8ac926"/>
<path fill="none" stroke="#8ac926" stroke-width="4" stroke-linecap="round" d="M -716.1152792980332 -466.3360740163372 C -682.1152792980332 -466.3360740163372, -661.7152792980332 -447.3360740163372, -648.1152792980332 -447.3360740163372"/>
<rect x="-788.1152792980332" y="-468.3360740163372" width="72" height="4" fill="#8ac926"/>
<path fill="none" stroke="#8ac926" stroke-width="4" stroke-linecap="round" d="M -716.1152792980332 -430.3360740163372 C -682.1152792980332 -430.3360740163372, -661.7152792980332 -447.3360740163372, -648.1152792980332 -447.3360740163372"/>
<rect x="-788.1152792980332" y="-432.3360740163372" width="72" height="4" fill="#8ac926"/>
<path fill="none" stroke="#8ac926" stroke-width="4" stroke-linecap="round" d="M -716.1152792980332 -394.3360740163372 C -682.1152792980332 -394.3360740163372, -661.7152792980332 -447.3360740163372, -648.1152792980332 -447.3360740163372"/>
<rect x="-788.1152792980332" y="-396.3360740163372" width="72" height="4" fill="#8ac926"/>
<path fill="none" stroke="#8ac926" stroke-width="8" stroke-linecap="round" d="M -329.0442847543576 -268.03375854807246 C -303.22356622419335 -268.03375854807246, -287.7311351060948 -169.98939176358994, -277.4028476940291 -169.98939176358994"/>
<rect x="-554.0442847543576" y="-272.03375854807246" width="225" height="8" fill="#8ac926"/>
<path fill="none" stroke="#8ac926" stroke-width="6" stroke-linecap="round" d="M -634.0442847543576 -346.03375854807246 C -593.5442847543576 -346.03375854807246, -569.2442847543576 -268.03375854807246, -553.0442847543576 -268.03375854807246"/>
<rect x="-960.0442847543576" y="-349.03375854807246" width="326" height="6" fill="#8ac926"/>
<path fill="none" stroke="#8ac926" stroke-width="6" stroke-linecap="round" d="M -597.8247682054831 -249.0344928521522 C -575.4345264799204 -249.0344928521522, -562.0003814445827 -268.03375854807246, -553.0442847543576 -268.03375854807246"/>
<rect x="-688.8247682054831" y="-252.0344928521522" width="91" height="6" fill="#8ac926"/>
<path fill="none" stroke="#8ac926" stroke-width="4" stroke-linecap="round" d="M -755.8247682054831 -304.0344928521522 C -721.8247682054831 -304.0344928521522, -701.4247682054831 -249.0344928521522, -687.8247682054831 -249.0344928521522"/>
<rect x="-827.8247682054831" y="-306.0344928521522" width="72" height="4" fill="#8ac926"/>
<path fill="none" stroke="#8ac926" stroke-width="4" stroke-linecap="round" d="M -786.8247682054831 -268.0344928521522 C -737.3247682054831 -268.0344928521522, -707.6247682054831 -249.0344928521522, -687.8247682054831 -249.0344928521522"/>
<rect x="-884.8247682054831" y="-270.0344928521522" width="98" height="4" fill="#8ac926"/>
<path fill="none" stroke="#8ac926" stroke-width="4" stroke-linecap="round" d="M -758.8247682054831 -232.0344928521522 C -723.3247682054831 -232.0344928521522, -702.0247682054832 -249.0344928521522, -687.8247682054831 -249.0344928521522"/>
<rect x="-830.8247682054831" y="-234.0344928521522" width="72" height="4" fill="#8ac926"/>
<path fill="none" stroke="#8ac926" stroke-width="4" stroke-linecap="round" d="M -755.8247682054831 -196.0344928521522 C -721.8247682054831 -196.0344928521522, -701.4247682054831 -249.0344928521522, -687.8247682054831 -249.0344928521522"/>
<rect x="-827.8247682054831" y="-198.0344928521522" width="72" height="4" fill="#8ac926"/>
<path fill="none" stroke="#8ac926" stroke-width="8" stroke-linecap="round" d="M -323.0337004871134 -78.0995808236899 C -300.21827409057124 -78.0995808236899, -286.5290182526459 -169.98939176358996, -277.4028476940291 -169.98939176358996"/>
<rect x="-528.0337004871134" y="-82.0995808236899" width="205" height="8" fill="#8ac926"/>
<path fill="none" stroke="#8ac926" stroke-width="6" stroke-linecap="round" d="M -612.0337004871134 -156.0995808236899 C -569.5337004871134 -156.0995808236899, -544.0337004871134 -78.0995808236899, -527.0337004871134 -78.0995808236899"/>
<rect x="-889.0337004871134" y="-159.0995808236899" width="277" height="6" fill="#8ac926"/>
<path fill="none" stroke="#8ac926" stroke-width="6" stroke-linecap="round" d="M -563.4170547672757 -54.901750542288 C -545.2253776271946 -54.901750542288, -534.3103713431459 -78.0995808236899, -527.0337004871134 -78.0995808236899"/>
<rect x="-654.4170547672757" y="-57.901750542288" width="91" height="6" fill="#8ac926"/>
<path fill="none" stroke="#8ac926" stroke-width="4" stroke-linecap="round" d="M -721.4170547672757 -109.901750542288 C -687.4170547672757 -109.901750542288, -667.0170547672757 -54.901750542288, -653.4170547672757 -54.901750542288"/>
<rect x="-793.4170547672757" y="-111.901750542288" width="72" height="4" fill="#8ac926"/>
<path fill="none" stroke="#8ac926" stroke-width="4" stroke-linecap="round" d="M -721.4170547672757 -73.901750542288 C -687.4170547672757 -73.901750542288, -667.0170547672757 -54.901750542288, -653.4170547672757 -54.901750542288"/>
<rect x="-793.4170547672757" y="-75.901750542288" width="72" height="4" fill="#8ac926"/>
<path fill="none" stroke="#8ac926" stroke-width="4" stroke-linecap="round" d="M -724.4170547672757 -37.901750542288 C -688.9170547672757 -37.901750542288, -667.6170547672757 -54.901750542288, -653.4170547672757 -54.901750542288"/>
<rect x="-796.4170547672757" y="-39.901750542288" width="72" height="4" fill="#8ac926"/>
<path fill="none" stroke="#8ac926" stroke-width="4" stroke-linecap="round" d="M -721.4170547672757 -1.9017505422879992 C -687.4170547672757 -1.9017505422879992, -667.0170547672757 -54.901750542288, -653.4170547672757 -54.901750542288"/>
<rect x="-793.4170547672757" y="-3.9017505422879992" width="72" height="4" fill="#8ac926"/>
<path fill="none" stroke="#8ac926" stroke-width="8" stroke-linecap="round" d="M -351.26110578379246 120.55606424517961 C -314.3319767389108 120.55606424517961, -292.1744993119818 -169.98939176358996, -277.4028476940291 -169.98939176358996"/>
<rect x="-546.2611057837925" y="116.55606424517961" width="195" height="8" fill="#8ac926"/>
<path fill="none" stroke="#8ac926" stroke-width="6" stroke-linecap="round" d="M -620.2611057837925 42.55606424517961 C -582.7611057837925 42.55606424517961, -560.2611057837925 120.55606424517961, -545.2611057837925 120.55606424517961"/>
<rect x="-931.2611057837925" y="39.55606424517961" width="311" height="6" fill="#8ac926"/>
<path fill="none" stroke="#8ac926" stroke-width="6" stroke-linecap="round" d="M -602.0421739485547 144.95348440814772 C -573.6516398661736 144.95348440814772, -556.617319416745 120.55606424517963, -545.2611057837925 120.55606424517963"/>
<rect x="-693.0421739485547" y="141.95348440814772" width="91" height="6" fill="#8ac926"/>
<path fill="none" stroke="#8ac926" stroke-width="4" stroke-linecap="round" d="M -760.0421739485547 89.95348440814772 C -726.0421739485547 89.95348440814772, -705.6421739485547 144.95348440814772, -692.0421739485547 144.95348440814772"/>
<rect x="-832.0421739485547" y="87.95348440814772" width="72" height="4" fill="#8ac926"/>
<path fill="none" stroke="#8ac926" stroke-width="4" stroke-linecap="round" d="M -771.0421739485547 125.95348440814772 C -731.5421739485547 125.95348440814772, -707.8421739485547 144.95348440814772, -692.0421739485547 144.95348440814772"/>
<rect x="-862.0421739485547" y="123.95348440814772" width="91" height="4" fill="#8ac926"/>
<path fill="none" stroke="#8ac926" stroke-width="4" stroke-linecap="round" d="M -760.0421739485547 161.95348440814772 C -726.0421739485547 161.95348440814772, -705.6421739485547 144.95348440814772, -692.0421739485547 144.95348440814772"/>
<rect x="-832.0421739485547" y="159.95348440814772" width="72" height="4" fill="#8ac926"/>
<path fill="none" stroke="#8ac926" stroke-width="4" stroke-linecap="round" d="M -760.0421739485547 197.95348440814772 C -726.0421739485547 197.95348440814772, -705.6421739485547 144.95348440814772, -692.0421739485547 144.95348440814772"/>
<rect x="-832.0421739485547" y="195.95348440814772" width="72" height="4" fill="#8ac926"/>
<rect x="-222" y="16" width="444" height="64" rx="10" ry="10" fill="#ffffff" stroke="none" stroke-width="0"/>
<text x="0" y="41.6" fill="#000000" font-family="sans-serif" font-size="27" font-style="normal" font-weight="bold" text-anchor="middle">
<tspan x="0" y="41.6">🔤 Programming Languages</tspan>
<tspan x="0" y="68.6">Additional Classification Methods</tspan>
</text>
<rect x="157.68384651475586" y="-261.5238044669336" width="351" height="34" rx="10" ry="10" fill="#ffffff" stroke="none" stroke-width="0"/>
<text x="333.1838465147558" y="-238.3238044669336" fill="#000000" font-family="sans-serif" font-size="24" font-style="normal" font-weight="bold" text-anchor="middle">⬆️⬇️ Low-Level vs. High-Level</text>
<rect x="532.0609077095847" y="-454.04212066375675" width="126" height="30" rx="10" ry="10" fill="#ffffff" stroke="none" stroke-width="0"/>
<text x="595.0609077095847" y="-434.04212066375675" fill="#000000" font-family="sans-serif" font-size="20" font-style="normal" font-weight="normal" text-anchor="middle">⬇️ Low-level:</text>
<rect x="692.0609077095847" y="-504.04212066375675" width="270" height="25" rx="10" ry="10" fill="#ffffff" stroke="none" stroke-width="0"/>
<text x="827.0609077095847" y="-488.04212066375675" fill="#000000" font-family="sans-serif" font-size="15" font-style="normal" font-weight="normal" text-anchor="middle">🔧 Close to hardware, memory-efficient</text>
<rect x="692.0609077095847" y="-454.04212066375675" width="174" height="25" rx="10" ry="10" fill="#ffffff" stroke="none" stroke-width="0"/>
<text x="779.0609077095847" y="-438.04212066375675" fill="#000000" font-family="sans-serif" font-size="15" font-style="normal" font-weight="normal" text-anchor="middle">🤔 Difficult to understand</text>
<rect x="692.0609077095847" y="-404.04212066375675" width="99" height="25" rx="10" ry="10" fill="#ffffff" stroke="none" stroke-width="0"/>
<text x="741.5609077095847" y="-388.04212066375675" fill="#000000" font-family="sans-serif" font-size="15" font-style="normal" font-weight="normal" text-anchor="middle">📝 Examples:</text>
<rect x="852.0609077095847" y="-404.04212066375675" width="256" height="25" rx="10" ry="10" fill="#ffffff" stroke="none" stroke-width="0"/>
<text x="980.0609077095847" y="-388.04212066375675" fill="#000000" font-family="sans-serif" font-size="15" font-style="normal" font-weight="normal" text-anchor="middle">⚙️ Machine and assembly languages</text>
<rect x="525.2160171129416" y="-169.70997981218468" width="130" height="30" rx="10" ry="10" fill="#ffffff" stroke="none" stroke-width="0"/>
<text x="590.2160171129416" y="-149.70997981218468" fill="#000000" font-family="sans-serif" font-size="20" font-style="normal" font-weight="normal" text-anchor="middle">⬆️ High-level:</text>
<rect x="685.2160171129416" y="-266.70997981218466" width="200" height="25" rx="10" ry="10" fill="#ffffff" stroke="none" stroke-width="0"/>
<text x="785.2160171129416" y="-250.70997981218466" fill="#000000" font-family="sans-serif" font-size="15" font-style="normal" font-weight="normal" text-anchor="middle">📖 Close to natural language</text>
<rect x="685.2160171129416" y="-216.70997981218468" width="267" height="25" rx="10" ry="10" fill="#ffffff" stroke="none" stroke-width="0"/>
<text x="818.7160171129416" y="-200.70997981218468" fill="#000000" font-family="sans-serif" font-size="15" font-style="normal" font-weight="normal" text-anchor="middle">✨ Easier to use, less memory-efficient</text>
<rect x="685.2160171129416" y="-119.70997981218468" width="99" height="25" rx="10" ry="10" fill="#ffffff" stroke="none" stroke-width="0"/>
<text x="734.7160171129416" y="-103.70997981218468" fill="#000000" font-family="sans-serif" font-size="15" font-style="normal" font-weight="normal" text-anchor="middle">📝 Examples:</text>
<rect x="845.2160171129416" y="-173.70997981218468" width="80" height="25" rx="10" ry="10" fill="#ffffff" stroke="none" stroke-width="0"/>
<text x="885.2160171129416" y="-157.70997981218468" fill="#000000" font-family="sans-serif" font-size="15" font-style="normal" font-weight="normal" text-anchor="middle">🐍 Python</text>
<rect x="845.2160171129416" y="-137.70997981218468" width="80" height="25" rx="10" ry="10" fill="#ffffff" stroke="none" stroke-width="0"/>
<text x="885.2160171129416" y="-121.70997981218468" fill="#000000" font-family="sans-serif" font-size="15" font-style="normal" font-weight="normal" text-anchor="middle">⚡ C++</text>
<rect x="845.2160171129416" y="-101.70997981218468" width="80" height="25" rx="10" ry="10" fill="#ffffff" stroke="none" stroke-width="0"/>
<text x="885.2160171129416" y="-85.70997981218468" fill="#000000" font-family="sans-serif" font-size="15" font-style="normal" font-weight="normal" text-anchor="middle">☕ Java</text>
<rect x="845.2160171129416" y="-65.70997981218468" width="99" height="25" rx="10" ry="10" fill="#ffffff" stroke="none" stroke-width="0"/>
<text x="894.7160171129416" y="-49.709979812184685" fill="#000000" font-family="sans-serif" font-size="15" font-style="normal" font-weight="normal" text-anchor="middle">🌐 JavaScript</text>
<rect x="204.1233327956499" y="249.91912660037227" width="346" height="34" rx="10" ry="10" fill="#ffffff" stroke="none" stroke-width="0"/>
<text x="377.1233327956499" y="273.1191266003723" fill="#000000" font-family="sans-serif" font-size="24" font-style="normal" font-weight="bold" text-anchor="middle">⚙️🔄 Compiled vs. Interpreted</text>
<rect x="503.51423295983705" y="75.36672549765981" width="126" height="30" rx="10" ry="10" fill="#ffffff" stroke="none" stroke-width="0"/>
<text x="566.514232959837" y="95.36672549765981" fill="#000000" font-family="sans-serif" font-size="20" font-style="normal" font-weight="normal" text-anchor="middle">📦 Compiled:</text>
<rect x="663.514232959837" y="-21.633274502340186" width="328" height="25" rx="10" ry="10" fill="#ffffff" stroke="none" stroke-width="0"/>
<text x="827.514232959837" y="-5.633274502340186" fill="#000000" font-family="sans-serif" font-size="15" font-style="normal" font-weight="normal" text-anchor="middle">⚙️ Converted to machine code before execution</text>
<rect x="663.514232959837" y="28.366725497659814" width="226" height="25" rx="10" ry="10" fill="#ffffff" stroke="none" stroke-width="0"/>
<text x="776.514232959837" y="44.366725497659814" fill="#000000" font-family="sans-serif" font-size="15" font-style="normal" font-weight="normal" text-anchor="middle">⚡ Faster runtime, slower editing</text>
<rect x="663.514232959837" y="125.36672549765981" width="99" height="25" rx="10" ry="10" fill="#ffffff" stroke="none" stroke-width="0"/>
<text x="713.014232959837" y="141.36672549765981" fill="#000000" font-family="sans-serif" font-size="15" font-style="normal" font-weight="normal" text-anchor="middle">📝 Examples:</text>
<rect x="823.514232959837" y="71.36672549765981" width="80" height="25" rx="10" ry="10" fill="#ffffff" stroke="none" stroke-width="0"/>
<text x="863.514232959837" y="87.36672549765981" fill="#000000" font-family="sans-serif" font-size="15" font-style="normal" font-weight="normal" text-anchor="middle">🔵 C</text>
<rect x="823.514232959837" y="107.36672549765981" width="80" height="25" rx="10" ry="10" fill="#ffffff" stroke="none" stroke-width="0"/>
<text x="863.514232959837" y="123.36672549765981" fill="#000000" font-family="sans-serif" font-size="15" font-style="normal" font-weight="normal" text-anchor="middle">⚡ C++</text>
<rect x="823.514232959837" y="143.36672549765981" width="80" height="25" rx="10" ry="10" fill="#ffffff" stroke="none" stroke-width="0"/>
<text x="863.514232959837" y="159.36672549765981" fill="#000000" font-family="sans-serif" font-size="15" font-style="normal" font-weight="normal" text-anchor="middle">🐹 Golang</text>
<rect x="823.514232959837" y="179.36672549765981" width="80" height="25" rx="10" ry="10" fill="#ffffff" stroke="none" stroke-width="0"/>
<text x="863.514232959837" y="195.36672549765981" fill="#000000" font-family="sans-serif" font-size="15" font-style="normal" font-weight="normal" text-anchor="middle">🦀 Rust</text>
<rect x="552.566718606343" y="327.9354976254831" width="138" height="30" rx="10" ry="10" fill="#ffffff" stroke="none" stroke-width="0"/>
<text x="621.566718606343" y="347.9354976254831" fill="#000000" font-family="sans-serif" font-size="20" font-style="normal" font-weight="normal" text-anchor="middle">▶️ Interpreted:</text>
<rect x="712.566718606343" y="230.9354976254831" width="303" height="25" rx="10" ry="10" fill="#ffffff" stroke="none" stroke-width="0"/>
<text x="864.066718606343" y="246.9354976254831" fill="#000000" font-family="sans-serif" font-size="15" font-style="normal" font-weight="normal" text-anchor="middle">▶️ Line-by-line execution without conversion</text>
<rect x="712.566718606343" y="280.9354976254831" width="264" height="25" rx="10" ry="10" fill="#ffffff" stroke="none" stroke-width="0"/>
<text x="844.566718606343" y="296.9354976254831" fill="#000000" font-family="sans-serif" font-size="15" font-style="normal" font-weight="normal" text-anchor="middle">🔄 More flexible, platform-independent</text>
<rect x="712.566718606343" y="377.9354976254831" width="99" height="25" rx="10" ry="10" fill="#ffffff" stroke="none" stroke-width="0"/>
<text x="762.066718606343" y="393.9354976254831" fill="#000000" font-family="sans-serif" font-size="15" font-style="normal" font-weight="normal" text-anchor="middle">📝 Examples:</text>
<rect x="872.5667186063431" y="323.9354976254831" width="99" height="25" rx="10" ry="10" fill="#ffffff" stroke="none" stroke-width="0"/>
<text x="922.0667186063431" y="339.9354976254831" fill="#000000" font-family="sans-serif" font-size="15" font-style="normal" font-weight="normal" text-anchor="middle">🌐 JavaScript</text>
<rect x="872.5667186063431" y="359.9354976254831" width="80" height="25" rx="10" ry="10" fill="#ffffff" stroke="none" stroke-width="0"/>
<text x="912.5667186063431" y="375.9354976254831" fill="#000000" font-family="sans-serif" font-size="15" font-style="normal" font-weight="normal" text-anchor="middle">💎 Ruby</text>
<rect x="872.5667186063431" y="395.9354976254831" width="80" height="25" rx="10" ry="10" fill="#ffffff" stroke="none" stroke-width="0"/>
<text x="912.5667186063431" y="411.9354976254831" fill="#000000" font-family="sans-serif" font-size="15" font-style="normal" font-weight="normal" text-anchor="middle">🐪 Perl</text>
<rect x="872.5667186063431" y="431.9354976254831" width="80" height="25" rx="10" ry="10" fill="#ffffff" stroke="none" stroke-width="0"/>
<text x="912.5667186063431" y="447.9354976254831" fill="#000000" font-family="sans-serif" font-size="15" font-style="normal" font-weight="normal" text-anchor="middle">🐘 PHP</text>
<rect x="475.4578724019107" y="498.47325502993965" width="99" height="30" rx="10" ry="10" fill="#ffffff" stroke="none" stroke-width="0"/>
<text x="524.9578724019107" y="518.4732550299397" fill="#000000" font-family="sans-serif" font-size="20" font-style="normal" font-weight="normal" text-anchor="middle">🔀 Hybrid:</text>
<rect x="635.4578724019107" y="498.47325502993965" width="99" height="25" rx="10" ry="10" fill="#ffffff" stroke="none" stroke-width="0"/>
<text x="684.9578724019107" y="514.4732550299397" fill="#000000" font-family="sans-serif" font-size="15" font-style="normal" font-weight="normal" text-anchor="middle">📝 Examples:</text>
<rect x="795.4578724019107" y="480.47325502993965" width="80" height="25" rx="10" ry="10" fill="#ffffff" stroke="none" stroke-width="0"/>
<text x="835.4578724019107" y="496.47325502993965" fill="#000000" font-family="sans-serif" font-size="15" font-style="normal" font-weight="normal" text-anchor="middle">Python</text>
<rect x="795.4578724019107" y="516.4732550299397" width="80" height="25" rx="10" ry="10" fill="#ffffff" stroke="none" stroke-width="0"/>
<text x="835.4578724019107" y="532.4732550299397" fill="#000000" font-family="sans-serif" font-size="15" font-style="normal" font-weight="normal" text-anchor="middle">Java</text>
<rect x="-212" y="384" width="337" height="34" rx="10" ry="10" fill="#ffffff" stroke="none" stroke-width="0"/>
<text x="-43.5" y="407.2" fill="#000000" font-family="sans-serif" font-size="24" font-style="normal" font-weight="bold" text-anchor="middle">🎨💻 Front-End vs. Back-End</text>
<rect x="-369.0940846371169" y="264.2221054470548" width="128" height="30" rx="10" ry="10" fill="#ffffff" stroke="none" stroke-width="0"/>
<text x="-305.0940846371169" y="284.2221054470548" fill="#000000" font-family="sans-serif" font-size="20" font-style="normal" font-weight="normal" text-anchor="middle">🎨 Front-end:</text>
<rect x="-682.0940846371169" y="192.22210544705482" width="207" height="25" rx="10" ry="10" fill="#ffffff" stroke="none" stroke-width="0"/>
<text x="-578.5940846371169" y="208.22210544705482" fill="#000000" font-family="sans-serif" font-size="15" font-style="normal" font-weight="normal" text-anchor="middle">👁️ User-facing: UI, UX, layout</text>
<rect x="-520.0940846371169" y="289.2221054470548" width="99" height="25" rx="10" ry="10" fill="#ffffff" stroke="none" stroke-width="0"/>
<text x="-470.5940846371169" y="305.2221054470548" fill="#000000" font-family="sans-serif" font-size="15" font-style="normal" font-weight="normal" text-anchor="middle">📝 Examples:</text>
<rect x="-659.0940846371169" y="235.22210544705482" width="80" height="25" rx="10" ry="10" fill="#ffffff" stroke="none" stroke-width="0"/>
<text x="-619.0940846371169" y="251.22210544705482" fill="#000000" font-family="sans-serif" font-size="15" font-style="normal" font-weight="normal" text-anchor="middle">📝 HTML</text>
<rect x="-659.0940846371169" y="271.2221054470548" width="80" height="25" rx="10" ry="10" fill="#ffffff" stroke="none" stroke-width="0"/>
<text x="-619.0940846371169" y="287.2221054470548" fill="#000000" font-family="sans-serif" font-size="15" font-style="normal" font-weight="normal" text-anchor="middle">🎨 CSS</text>
<rect x="-689.0940846371169" y="307.2221054470548" width="99" height="25" rx="10" ry="10" fill="#ffffff" stroke="none" stroke-width="0"/>
<text x="-639.5940846371169" y="323.2221054470548" fill="#000000" font-family="sans-serif" font-size="15" font-style="normal" font-weight="normal" text-anchor="middle">🌐 JavaScript</text>
<rect x="-659.0940846371169" y="343.2221054470548" width="80" height="25" rx="10" ry="10" fill="#ffffff" stroke="none" stroke-width="0"/>
<text x="-619.0940846371169" y="359.2221054470548" fill="#000000" font-family="sans-serif" font-size="15" font-style="normal" font-weight="normal" text-anchor="middle">🍎 Swift</text>
<rect x="-377.81555198160385" y="480.99748337625175" width="126" height="30" rx="10" ry="10" fill="#ffffff" stroke="none" stroke-width="0"/>
<text x="-314.81555198160385" y="500.99748337625175" fill="#000000" font-family="sans-serif" font-size="20" font-style="normal" font-weight="normal" text-anchor="middle">💻 Back-end:</text>
<rect x="-897.8155519816039" y="408.99748337625175" width="361" height="25" rx="10" ry="10" fill="#ffffff" stroke="none" stroke-width="0"/>
<text x="-717.3155519816039" y="424.99748337625175" fill="#000000" font-family="sans-serif" font-size="15" font-style="normal" font-weight="normal" text-anchor="middle">🗄️ Server-side: APIs, databases, system architecture</text>
<rect x="-537.8155519816039" y="514.9974833762517" width="99" height="25" rx="10" ry="10" fill="#ffffff" stroke="none" stroke-width="0"/>
<text x="-488.3155519816039" y="530.9974833762517" fill="#000000" font-family="sans-serif" font-size="15" font-style="normal" font-weight="normal" text-anchor="middle">📝 Examples:</text>
<rect x="-676.8155519816039" y="460.99748337625175" width="80" height="25" rx="10" ry="10" fill="#ffffff" stroke="none" stroke-width="0"/>
<text x="-636.8155519816039" y="476.99748337625175" fill="#000000" font-family="sans-serif" font-size="15" font-style="normal" font-weight="normal" text-anchor="middle">🐍 Python</text>
<rect x="-676.8155519816039" y="496.99748337625175" width="80" height="25" rx="10" ry="10" fill="#ffffff" stroke="none" stroke-width="0"/>
<text x="-636.8155519816039" y="512.9974833762517" fill="#000000" font-family="sans-serif" font-size="15" font-style="normal" font-weight="normal" text-anchor="middle">☕ Java</text>
<rect x="-706.8155519816039" y="532.9974833762517" width="99" height="25" rx="10" ry="10" fill="#ffffff" stroke="none" stroke-width="0"/>
<text x="-657.3155519816039" y="548.9974833762517" fill="#000000" font-family="sans-serif" font-size="15" font-style="normal" font-weight="normal" text-anchor="middle">🌐 JavaScript</text>
<rect x="-676.8155519816039" y="568.9974833762517" width="80" height="25" rx="10" ry="10" fill="#ffffff" stroke="none" stroke-width="0"/>
<text x="-636.8155519816039" y="584.9974833762517" fill="#000000" font-family="sans-serif" font-size="15" font-style="normal" font-weight="normal" text-anchor="middle">🐘 PHP</text>
<rect x="-282.4028476940291" y="-212.98939176358996" width="302" height="34" rx="10" ry="10" fill="#ffffff" stroke="none" stroke-width="0"/>
<text x="-131.4028476940291" y="-189.78939176358995" fill="#000000" font-family="sans-serif" font-size="24" font-style="normal" font-weight="bold" text-anchor="middle">🎯 Specialized Categories</text>
<rect x="-498.5321910051159" y="-502.5359548899082" width="176" height="30" rx="10" ry="10" fill="#ffffff" stroke="none" stroke-width="0"/>
<text x="-410.5321910051159" y="-482.5359548899082" fill="#000000" font-family="sans-serif" font-size="20" font-style="normal" font-weight="normal" text-anchor="middle">🤖 Agent-Oriented:</text>
<rect x="-874.5321910051159" y="-574.5359548899082" width="299" height="25" rx="10" ry="10" fill="#ffffff" stroke="none" stroke-width="0"/>
<text x="-725.0321910051159" y="-558.5359548899082" fill="#000000" font-family="sans-serif" font-size="15" font-style="normal" font-weight="normal" text-anchor="middle">🤖 Autonomous, interactive software agents</text>
<rect x="-653.1152792980332" y="-479.3360740163372" width="99" height="25" rx="10" ry="10" fill="#ffffff" stroke="none" stroke-width="0"/>
<text x="-603.6152792980332" y="-463.3360740163372" fill="#000000" font-family="sans-serif" font-size="15" font-style="normal" font-weight="normal" text-anchor="middle">📝 Examples:</text>
<rect x="-795.1152792980332" y="-533.3360740163372" width="80" height="25" rx="10" ry="10" fill="#ffffff" stroke="none" stroke-width="0"/>
<text x="-755.1152792980332" y="-517.3360740163372" fill="#000000" font-family="sans-serif" font-size="15" font-style="normal" font-weight="normal" text-anchor="middle">Clojure</text>
<rect x="-792.1152792980332" y="-497.3360740163372" width="80" height="25" rx="10" ry="10" fill="#ffffff" stroke="none" stroke-width="0"/>
<text x="-752.1152792980332" y="-481.3360740163372" fill="#000000" font-family="sans-serif" font-size="15" font-style="normal" font-weight="normal" text-anchor="middle">F#</text>
<rect x="-792.1152792980332" y="-461.3360740163372" width="80" height="25" rx="10" ry="10" fill="#ffffff" stroke="none" stroke-width="0"/>
<text x="-752.1152792980332" y="-445.3360740163372" fill="#000000" font-family="sans-serif" font-size="15" font-style="normal" font-weight="normal" text-anchor="middle">GOAL</text>
<rect x="-792.1152792980332" y="-425.3360740163372" width="80" height="25" rx="10" ry="10" fill="#ffffff" stroke="none" stroke-width="0"/>
<text x="-752.1152792980332" y="-409.3360740163372" fill="#000000" font-family="sans-serif" font-size="15" font-style="normal" font-weight="normal" text-anchor="middle">SARL</text>
<rect x="-558.0442847543576" y="-306.03375854807246" width="233" height="30" rx="10" ry="10" fill="#ffffff" stroke="none" stroke-width="0"/>
<text x="-441.5442847543576" y="-286.03375854807246" fill="#000000" font-family="sans-serif" font-size="20" font-style="normal" font-weight="normal" text-anchor="middle">🔌 Hardware Description:</text>
<rect x="-964.0442847543576" y="-378.03375854807246" width="334" height="25" rx="10" ry="10" fill="#ffffff" stroke="none" stroke-width="0"/>
<text x="-797.0442847543576" y="-362.03375854807246" fill="#000000" font-family="sans-serif" font-size="15" font-style="normal" font-weight="normal" text-anchor="middle">🔌 Design and simulate digital hardware systems</text>
<rect x="-692.8247682054831" y="-281.0344928521522" width="99" height="25" rx="10" ry="10" fill="#ffffff" stroke="none" stroke-width="0"/>
<text x="-643.3247682054831" y="-265.0344928521522" fill="#000000" font-family="sans-serif" font-size="15" font-style="normal" font-weight="normal" text-anchor="middle">📝 Examples:</text>
<rect x="-831.8247682054831" y="-335.0344928521522" width="80" height="25" rx="10" ry="10" fill="#ffffff" stroke="none" stroke-width="0"/>
<text x="-791.8247682054831" y="-319.0344928521522" fill="#000000" font-family="sans-serif" font-size="15" font-style="normal" font-weight="normal" text-anchor="middle">MyHDL</text>
<rect x="-888.8247682054831" y="-299.0344928521522" width="106" height="25" rx="10" ry="10" fill="#ffffff" stroke="none" stroke-width="0"/>
<text x="-835.8247682054831" y="-283.0344928521522" fill="#000000" font-family="sans-serif" font-size="15" font-style="normal" font-weight="normal" text-anchor="middle">SystemVerilog</text>
<rect x="-834.8247682054831" y="-263.0344928521522" width="80" height="25" rx="10" ry="10" fill="#ffffff" stroke="none" stroke-width="0"/>
<text x="-794.8247682054831" y="-247.0344928521522" fill="#000000" font-family="sans-serif" font-size="15" font-style="normal" font-weight="normal" text-anchor="middle">Verilog</text>
<rect x="-831.8247682054831" y="-227.0344928521522" width="80" height="25" rx="10" ry="10" fill="#ffffff" stroke="none" stroke-width="0"/>
<text x="-791.8247682054831" y="-211.0344928521522" fill="#000000" font-family="sans-serif" font-size="15" font-style="normal" font-weight="normal" text-anchor="middle">VHDL</text>
<rect x="-532.0337004871134" y="-116.0995808236899" width="213" height="30" rx="10" ry="10" fill="#ffffff" stroke="none" stroke-width="0"/>
<text x="-425.5337004871134" y="-96.0995808236899" fill="#000000" font-family="sans-serif" font-size="20" font-style="normal" font-weight="normal" text-anchor="middle">📊 Array Programming:</text>
<rect x="-893.0337004871134" y="-188.0995808236899" width="285" height="25" rx="10" ry="10" fill="#ffffff" stroke="none" stroke-width="0"/>
<text x="-750.5337004871134" y="-172.0995808236899" fill="#000000" font-family="sans-serif" font-size="15" font-style="normal" font-weight="normal" text-anchor="middle">📊 Operations on entire arrays/collections</text>
<rect x="-658.4170547672757" y="-86.901750542288" width="99" height="25" rx="10" ry="10" fill="#ffffff" stroke="none" stroke-width="0"/>
<text x="-608.9170547672757" y="-70.901750542288" fill="#000000" font-family="sans-serif" font-size="15" font-style="normal" font-weight="normal" text-anchor="middle">📝 Examples:</text>
<rect x="-797.4170547672757" y="-140.901750542288" width="80" height="25" rx="10" ry="10" fill="#ffffff" stroke="none" stroke-width="0"/>
<text x="-757.4170547672757" y="-124.901750542288" fill="#000000" font-family="sans-serif" font-size="15" font-style="normal" font-weight="normal" text-anchor="middle">A+</text>
<rect x="-797.4170547672757" y="-104.901750542288" width="80" height="25" rx="10" ry="10" fill="#ffffff" stroke="none" stroke-width="0"/>
<text x="-757.4170547672757" y="-88.901750542288" fill="#000000" font-family="sans-serif" font-size="15" font-style="normal" font-weight="normal" text-anchor="middle">APL</text>
<rect x="-800.4170547672757" y="-68.901750542288" width="80" height="25" rx="10" ry="10" fill="#ffffff" stroke="none" stroke-width="0"/>
<text x="-760.4170547672757" y="-52.901750542288" fill="#000000" font-family="sans-serif" font-size="15" font-style="normal" font-weight="normal" text-anchor="middle">Fortran</text>
<rect x="-797.4170547672757" y="-32.901750542288" width="80" height="25" rx="10" ry="10" fill="#ffffff" stroke="none" stroke-width="0"/>
<text x="-757.4170547672757" y="-16.901750542288" fill="#000000" font-family="sans-serif" font-size="15" font-style="normal" font-weight="normal" text-anchor="middle">J</text>
<rect x="-550.2611057837925" y="82.55606424517961" width="203" height="30" rx="10" ry="10" fill="#ffffff" stroke="none" stroke-width="0"/>
<text x="-448.76110578379246" y="102.55606424517961" fill="#000000" font-family="sans-serif" font-size="20" font-style="normal" font-weight="normal" text-anchor="middle">🔀 Metaprogramming:</text>
<rect x="-935.2611057837925" y="10.556064245179613" width="319" height="25" rx="10" ry="10" fill="#ffffff" stroke="none" stroke-width="0"/>
<text x="-775.7611057837925" y="26.556064245179613" fill="#000000" font-family="sans-serif" font-size="15" font-style="normal" font-weight="normal" text-anchor="middle">🔀 Programs modify other programs at runtime</text>
<rect x="-697.0421739485547" y="112.95348440814772" width="99" height="25" rx="10" ry="10" fill="#ffffff" stroke="none" stroke-width="0"/>
<text x="-647.5421739485547" y="128.95348440814772" fill="#000000" font-family="sans-serif" font-size="15" font-style="normal" font-weight="normal" text-anchor="middle">📝 Examples:</text>
<rect x="-836.0421739485547" y="58.953484408147716" width="80" height="25" rx="10" ry="10" fill="#ffffff" stroke="none" stroke-width="0"/>
<text x="-796.0421739485547" y="74.95348440814772" fill="#000000" font-family="sans-serif" font-size="15" font-style="normal" font-weight="normal" text-anchor="middle">⚡ C++</text>
<rect x="-866.0421739485547" y="94.95348440814772" width="99" height="25" rx="10" ry="10" fill="#ffffff" stroke="none" stroke-width="0"/>
<text x="-816.5421739485547" y="110.95348440814772" fill="#000000" font-family="sans-serif" font-size="15" font-style="normal" font-weight="normal" text-anchor="middle">🌐 JavaScript</text>
<rect x="-836.0421739485547" y="130.95348440814772" width="80" height="25" rx="10" ry="10" fill="#ffffff" stroke="none" stroke-width="0"/>
<text x="-796.0421739485547" y="146.95348440814772" fill="#000000" font-family="sans-serif" font-size="15" font-style="normal" font-weight="normal" text-anchor="middle">🐍 Python</text>
<rect x="-836.0421739485547" y="166.95348440814772" width="80" height="25" rx="10" ry="10" fill="#ffffff" stroke="none" stroke-width="0"/>
<text x="-796.0421739485547" y="182.95348440814772" fill="#000000" font-family="sans-serif" font-size="15" font-style="normal" font-weight="normal" text-anchor="middle">🦀 Rust</text>
</g>
</svg>